<?xml version="1.0" encoding="utf-8" standalone="no"?>
<!DOCTYPE svg PUBLIC "-//W3C//DTD SVG 1.1//EN"
  "http://www.w3.org/Graphics/SVG/1.1/DTD/svg11.dtd">
<svg height="345.6pt" version="1.1" viewBox="0 0 345.6 345.6" width="345.6pt" xmlns="http://www.w3.org/2000/svg" xmlns:xlink="http://www.w3.org/1999/xlink">
 <metadata>
  <rdf:RDF xmlns:cc="http://creativecommons.org/ns#" xmlns:dc="http://purl.org/dc/elements/1.1/" xmlns:rdf="http://www.w3.org/1999/02/22-rdf-syntax-ns#">
   <cc:Work>
    <dc:type rdf:resource="http://purl.org/dc/dcmitype/StillImage"/>
    <dc:date>2021-09-11T21:06:09.085615</dc:date>
    <dc:format>image/svg+xml</dc:format>
    <dc:creator>
     <cc:Agent>
      <dc:title>Matplotlib v3.4.2, https://matplotlib.org/</dc:title>
     </cc:Agent>
    </dc:creator>
   </cc:Work>
  </rdf:RDF>
 </metadata>
 <defs>
  <style type="text/css">*{stroke-linecap:butt;stroke-linejoin:round;}</style>
 </defs>
 <g id="figure_1">
  <g id="patch_1">
   <path d="M 0 345.6 
L 345.6 345.6 
L 345.6 0 
L 0 0 
z
" style="fill:#ffffff;"/>
  </g>
  <g id="axes_1">
   <g id="patch_2">
    <path d="M 48.386 299.707 
L 334.8 299.707 
L 334.8 13.293 
L 48.386 13.293 
z
" style="fill:#ffffff;"/>
   </g>
   <g id="matplotlib.axis_1">
    <g id="xtick_1">
     <g id="line2d_1">
      <path clip-path="url(#p9e89da2fc4)" d="M 61.315465 299.707 
L 61.315465 13.293 
" style="fill:none;stroke:#e6e6e6;stroke-linecap:square;stroke-width:0.8;"/>
     </g>
     <g id="line2d_2">
      <defs>
       <path d="M 0 0 
L 0 3.5 
" id="m0a41dbbd04" style="stroke:#000000;stroke-width:0.8;"/>
      </defs>
      <g>
       <use style="stroke:#000000;stroke-width:0.8;" x="61.315465" xlink:href="#m0a41dbbd04" y="299.707"/>
      </g>
     </g>
     <g id="text_1">
      <!-- 0.0 -->
      <g transform="translate(52.975465 315.296375)scale(0.12 -0.12)">
       <defs>
        <path d="M 266 2259 
Q 266 3072 433 3567 
Q 600 4063 929 4331 
Q 1259 4600 1759 4600 
Q 2128 4600 2406 4451 
Q 2684 4303 2865 4023 
Q 3047 3744 3150 3342 
Q 3253 2941 3253 2259 
Q 3253 1453 3087 958 
Q 2922 463 2592 192 
Q 2263 -78 1759 -78 
Q 1097 -78 719 397 
Q 266 969 266 2259 
z
M 844 2259 
Q 844 1131 1108 757 
Q 1372 384 1759 384 
Q 2147 384 2411 759 
Q 2675 1134 2675 2259 
Q 2675 3391 2411 3762 
Q 2147 4134 1753 4134 
Q 1366 4134 1134 3806 
Q 844 3388 844 2259 
z
" id="ArialMT-30" transform="scale(0.015625)"/>
        <path d="M 581 0 
L 581 641 
L 1222 641 
L 1222 0 
L 581 0 
z
" id="ArialMT-2e" transform="scale(0.015625)"/>
       </defs>
       <use xlink:href="#ArialMT-30"/>
       <use x="55.615234" xlink:href="#ArialMT-2e"/>
       <use x="83.398438" xlink:href="#ArialMT-30"/>
      </g>
     </g>
    </g>
    <g id="xtick_2">
     <g id="line2d_3">
      <path clip-path="url(#p9e89da2fc4)" d="M 113.408608 299.707 
L 113.408608 13.293 
" style="fill:none;stroke:#e6e6e6;stroke-linecap:square;stroke-width:0.8;"/>
     </g>
     <g id="line2d_4">
      <g>
       <use style="stroke:#000000;stroke-width:0.8;" x="113.408608" xlink:href="#m0a41dbbd04" y="299.707"/>
      </g>
     </g>
     <g id="text_2">
      <!-- 0.2 -->
      <g transform="translate(105.068608 315.296375)scale(0.12 -0.12)">
       <defs>
        <path d="M 3222 541 
L 3222 0 
L 194 0 
Q 188 203 259 391 
Q 375 700 629 1000 
Q 884 1300 1366 1694 
Q 2113 2306 2375 2664 
Q 2638 3022 2638 3341 
Q 2638 3675 2398 3904 
Q 2159 4134 1775 4134 
Q 1369 4134 1125 3890 
Q 881 3647 878 3216 
L 300 3275 
Q 359 3922 746 4261 
Q 1134 4600 1788 4600 
Q 2447 4600 2831 4234 
Q 3216 3869 3216 3328 
Q 3216 3053 3103 2787 
Q 2991 2522 2730 2228 
Q 2469 1934 1863 1422 
Q 1356 997 1212 845 
Q 1069 694 975 541 
L 3222 541 
z
" id="ArialMT-32" transform="scale(0.015625)"/>
       </defs>
       <use xlink:href="#ArialMT-30"/>
       <use x="55.615234" xlink:href="#ArialMT-2e"/>
       <use x="83.398438" xlink:href="#ArialMT-32"/>
      </g>
     </g>
    </g>
    <g id="xtick_3">
     <g id="line2d_5">
      <path clip-path="url(#p9e89da2fc4)" d="M 165.501751 299.707 
L 165.501751 13.293 
" style="fill:none;stroke:#e6e6e6;stroke-linecap:square;stroke-width:0.8;"/>
     </g>
     <g id="line2d_6">
      <g>
       <use style="stroke:#000000;stroke-width:0.8;" x="165.501751" xlink:href="#m0a41dbbd04" y="299.707"/>
      </g>
     </g>
     <g id="text_3">
      <!-- 0.4 -->
      <g transform="translate(157.161751 315.296375)scale(0.12 -0.12)">
       <defs>
        <path d="M 2069 0 
L 2069 1097 
L 81 1097 
L 81 1613 
L 2172 4581 
L 2631 4581 
L 2631 1613 
L 3250 1613 
L 3250 1097 
L 2631 1097 
L 2631 0 
L 2069 0 
z
M 2069 1613 
L 2069 3678 
L 634 1613 
L 2069 1613 
z
" id="ArialMT-34" transform="scale(0.015625)"/>
       </defs>
       <use xlink:href="#ArialMT-30"/>
       <use x="55.615234" xlink:href="#ArialMT-2e"/>
       <use x="83.398438" xlink:href="#ArialMT-34"/>
      </g>
     </g>
    </g>
    <g id="xtick_4">
     <g id="line2d_7">
      <path clip-path="url(#p9e89da2fc4)" d="M 217.594895 299.707 
L 217.594895 13.293 
" style="fill:none;stroke:#e6e6e6;stroke-linecap:square;stroke-width:0.8;"/>
     </g>
     <g id="line2d_8">
      <g>
       <use style="stroke:#000000;stroke-width:0.8;" x="217.594895" xlink:href="#m0a41dbbd04" y="299.707"/>
      </g>
     </g>
     <g id="text_4">
      <!-- 0.6 -->
      <g transform="translate(209.254895 315.296375)scale(0.12 -0.12)">
       <defs>
        <path d="M 3184 3459 
L 2625 3416 
Q 2550 3747 2413 3897 
Q 2184 4138 1850 4138 
Q 1581 4138 1378 3988 
Q 1113 3794 959 3422 
Q 806 3050 800 2363 
Q 1003 2672 1297 2822 
Q 1591 2972 1913 2972 
Q 2475 2972 2870 2558 
Q 3266 2144 3266 1488 
Q 3266 1056 3080 686 
Q 2894 316 2569 119 
Q 2244 -78 1831 -78 
Q 1128 -78 684 439 
Q 241 956 241 2144 
Q 241 3472 731 4075 
Q 1159 4600 1884 4600 
Q 2425 4600 2770 4297 
Q 3116 3994 3184 3459 
z
M 888 1484 
Q 888 1194 1011 928 
Q 1134 663 1356 523 
Q 1578 384 1822 384 
Q 2178 384 2434 671 
Q 2691 959 2691 1453 
Q 2691 1928 2437 2201 
Q 2184 2475 1800 2475 
Q 1419 2475 1153 2201 
Q 888 1928 888 1484 
z
" id="ArialMT-36" transform="scale(0.015625)"/>
       </defs>
       <use xlink:href="#ArialMT-30"/>
       <use x="55.615234" xlink:href="#ArialMT-2e"/>
       <use x="83.398438" xlink:href="#ArialMT-36"/>
      </g>
     </g>
    </g>
    <g id="xtick_5">
     <g id="line2d_9">
      <path clip-path="url(#p9e89da2fc4)" d="M 269.688038 299.707 
L 269.688038 13.293 
" style="fill:none;stroke:#e6e6e6;stroke-linecap:square;stroke-width:0.8;"/>
     </g>
     <g id="line2d_10">
      <g>
       <use style="stroke:#000000;stroke-width:0.8;" x="269.688038" xlink:href="#m0a41dbbd04" y="299.707"/>
      </g>
     </g>
     <g id="text_5">
      <!-- 0.8 -->
      <g transform="translate(261.348038 315.296375)scale(0.12 -0.12)">
       <defs>
        <path d="M 1131 2484 
Q 781 2613 612 2850 
Q 444 3088 444 3419 
Q 444 3919 803 4259 
Q 1163 4600 1759 4600 
Q 2359 4600 2725 4251 
Q 3091 3903 3091 3403 
Q 3091 3084 2923 2848 
Q 2756 2613 2416 2484 
Q 2838 2347 3058 2040 
Q 3278 1734 3278 1309 
Q 3278 722 2862 322 
Q 2447 -78 1769 -78 
Q 1091 -78 675 323 
Q 259 725 259 1325 
Q 259 1772 486 2073 
Q 713 2375 1131 2484 
z
M 1019 3438 
Q 1019 3113 1228 2906 
Q 1438 2700 1772 2700 
Q 2097 2700 2305 2904 
Q 2513 3109 2513 3406 
Q 2513 3716 2298 3927 
Q 2084 4138 1766 4138 
Q 1444 4138 1231 3931 
Q 1019 3725 1019 3438 
z
M 838 1322 
Q 838 1081 952 856 
Q 1066 631 1291 507 
Q 1516 384 1775 384 
Q 2178 384 2440 643 
Q 2703 903 2703 1303 
Q 2703 1709 2433 1975 
Q 2163 2241 1756 2241 
Q 1359 2241 1098 1978 
Q 838 1716 838 1322 
z
" id="ArialMT-38" transform="scale(0.015625)"/>
       </defs>
       <use xlink:href="#ArialMT-30"/>
       <use x="55.615234" xlink:href="#ArialMT-2e"/>
       <use x="83.398438" xlink:href="#ArialMT-38"/>
      </g>
     </g>
    </g>
    <g id="xtick_6">
     <g id="line2d_11">
      <path clip-path="url(#p9e89da2fc4)" d="M 321.781182 299.707 
L 321.781182 13.293 
" style="fill:none;stroke:#e6e6e6;stroke-linecap:square;stroke-width:0.8;"/>
     </g>
     <g id="line2d_12">
      <g>
       <use style="stroke:#000000;stroke-width:0.8;" x="321.781182" xlink:href="#m0a41dbbd04" y="299.707"/>
      </g>
     </g>
     <g id="text_6">
      <!-- 1.0 -->
      <g transform="translate(313.441182 315.296375)scale(0.12 -0.12)">
       <defs>
        <path d="M 2384 0 
L 1822 0 
L 1822 3584 
Q 1619 3391 1289 3197 
Q 959 3003 697 2906 
L 697 3450 
Q 1169 3672 1522 3987 
Q 1875 4303 2022 4600 
L 2384 4600 
L 2384 0 
z
" id="ArialMT-31" transform="scale(0.015625)"/>
       </defs>
       <use xlink:href="#ArialMT-31"/>
       <use x="55.615234" xlink:href="#ArialMT-2e"/>
       <use x="83.398438" xlink:href="#ArialMT-30"/>
      </g>
     </g>
    </g>
    <g id="text_7">
     <!-- Recall -->
     <g transform="translate(174.9205 330.27075)scale(0.12 -0.12)">
      <defs>
       <path d="M 503 0 
L 503 4581 
L 2534 4581 
Q 3147 4581 3465 4457 
Q 3784 4334 3975 4021 
Q 4166 3709 4166 3331 
Q 4166 2844 3850 2509 
Q 3534 2175 2875 2084 
Q 3116 1969 3241 1856 
Q 3506 1613 3744 1247 
L 4541 0 
L 3778 0 
L 3172 953 
Q 2906 1366 2734 1584 
Q 2563 1803 2427 1890 
Q 2291 1978 2150 2013 
Q 2047 2034 1813 2034 
L 1109 2034 
L 1109 0 
L 503 0 
z
M 1109 2559 
L 2413 2559 
Q 2828 2559 3062 2645 
Q 3297 2731 3419 2920 
Q 3541 3109 3541 3331 
Q 3541 3656 3305 3865 
Q 3069 4075 2559 4075 
L 1109 4075 
L 1109 2559 
z
" id="ArialMT-52" transform="scale(0.015625)"/>
       <path d="M 2694 1069 
L 3275 997 
Q 3138 488 2766 206 
Q 2394 -75 1816 -75 
Q 1088 -75 661 373 
Q 234 822 234 1631 
Q 234 2469 665 2931 
Q 1097 3394 1784 3394 
Q 2450 3394 2872 2941 
Q 3294 2488 3294 1666 
Q 3294 1616 3291 1516 
L 816 1516 
Q 847 969 1125 678 
Q 1403 388 1819 388 
Q 2128 388 2347 550 
Q 2566 713 2694 1069 
z
M 847 1978 
L 2700 1978 
Q 2663 2397 2488 2606 
Q 2219 2931 1791 2931 
Q 1403 2931 1139 2672 
Q 875 2413 847 1978 
z
" id="ArialMT-65" transform="scale(0.015625)"/>
       <path d="M 2588 1216 
L 3141 1144 
Q 3050 572 2676 248 
Q 2303 -75 1759 -75 
Q 1078 -75 664 370 
Q 250 816 250 1647 
Q 250 2184 428 2587 
Q 606 2991 970 3192 
Q 1334 3394 1763 3394 
Q 2303 3394 2647 3120 
Q 2991 2847 3088 2344 
L 2541 2259 
Q 2463 2594 2264 2762 
Q 2066 2931 1784 2931 
Q 1359 2931 1093 2626 
Q 828 2322 828 1663 
Q 828 994 1084 691 
Q 1341 388 1753 388 
Q 2084 388 2306 591 
Q 2528 794 2588 1216 
z
" id="ArialMT-63" transform="scale(0.015625)"/>
       <path d="M 2588 409 
Q 2275 144 1986 34 
Q 1697 -75 1366 -75 
Q 819 -75 525 192 
Q 231 459 231 875 
Q 231 1119 342 1320 
Q 453 1522 633 1644 
Q 813 1766 1038 1828 
Q 1203 1872 1538 1913 
Q 2219 1994 2541 2106 
Q 2544 2222 2544 2253 
Q 2544 2597 2384 2738 
Q 2169 2928 1744 2928 
Q 1347 2928 1158 2789 
Q 969 2650 878 2297 
L 328 2372 
Q 403 2725 575 2942 
Q 747 3159 1072 3276 
Q 1397 3394 1825 3394 
Q 2250 3394 2515 3294 
Q 2781 3194 2906 3042 
Q 3031 2891 3081 2659 
Q 3109 2516 3109 2141 
L 3109 1391 
Q 3109 606 3145 398 
Q 3181 191 3288 0 
L 2700 0 
Q 2613 175 2588 409 
z
M 2541 1666 
Q 2234 1541 1622 1453 
Q 1275 1403 1131 1340 
Q 988 1278 909 1158 
Q 831 1038 831 891 
Q 831 666 1001 516 
Q 1172 366 1500 366 
Q 1825 366 2078 508 
Q 2331 650 2450 897 
Q 2541 1088 2541 1459 
L 2541 1666 
z
" id="ArialMT-61" transform="scale(0.015625)"/>
       <path d="M 409 0 
L 409 4581 
L 972 4581 
L 972 0 
L 409 0 
z
" id="ArialMT-6c" transform="scale(0.015625)"/>
      </defs>
      <use xlink:href="#ArialMT-52"/>
      <use x="72.216797" xlink:href="#ArialMT-65"/>
      <use x="127.832031" xlink:href="#ArialMT-63"/>
      <use x="177.832031" xlink:href="#ArialMT-61"/>
      <use x="233.447266" xlink:href="#ArialMT-6c"/>
      <use x="255.664062" xlink:href="#ArialMT-6c"/>
     </g>
    </g>
   </g>
   <g id="matplotlib.axis_2">
    <g id="ytick_1">
     <g id="line2d_13">
      <path clip-path="url(#p9e89da2fc4)" d="M 48.386 258.911556 
L 334.8 258.911556 
" style="fill:none;stroke:#e6e6e6;stroke-linecap:square;stroke-width:0.8;"/>
     </g>
     <g id="line2d_14">
      <defs>
       <path d="M 0 0 
L -3.5 0 
" id="m30d84eb43d" style="stroke:#000000;stroke-width:0.8;"/>
      </defs>
      <g>
       <use style="stroke:#000000;stroke-width:0.8;" x="48.386" xlink:href="#m30d84eb43d" y="258.911556"/>
      </g>
     </g>
     <g id="text_8">
      <!-- 0.2 -->
      <g transform="translate(24.706 263.206243)scale(0.12 -0.12)">
       <use xlink:href="#ArialMT-30"/>
       <use x="55.615234" xlink:href="#ArialMT-2e"/>
       <use x="83.398438" xlink:href="#ArialMT-32"/>
      </g>
     </g>
    </g>
    <g id="ytick_2">
     <g id="line2d_15">
      <path clip-path="url(#p9e89da2fc4)" d="M 48.386 200.761621 
L 334.8 200.761621 
" style="fill:none;stroke:#e6e6e6;stroke-linecap:square;stroke-width:0.8;"/>
     </g>
     <g id="line2d_16">
      <g>
       <use style="stroke:#000000;stroke-width:0.8;" x="48.386" xlink:href="#m30d84eb43d" y="200.761621"/>
      </g>
     </g>
     <g id="text_9">
      <!-- 0.4 -->
      <g transform="translate(24.706 205.056309)scale(0.12 -0.12)">
       <use xlink:href="#ArialMT-30"/>
       <use x="55.615234" xlink:href="#ArialMT-2e"/>
       <use x="83.398438" xlink:href="#ArialMT-34"/>
      </g>
     </g>
    </g>
    <g id="ytick_3">
     <g id="line2d_17">
      <path clip-path="url(#p9e89da2fc4)" d="M 48.386 142.611687 
L 334.8 142.611687 
" style="fill:none;stroke:#e6e6e6;stroke-linecap:square;stroke-width:0.8;"/>
     </g>
     <g id="line2d_18">
      <g>
       <use style="stroke:#000000;stroke-width:0.8;" x="48.386" xlink:href="#m30d84eb43d" y="142.611687"/>
      </g>
     </g>
     <g id="text_10">
      <!-- 0.6 -->
      <g transform="translate(24.706 146.906374)scale(0.12 -0.12)">
       <use xlink:href="#ArialMT-30"/>
       <use x="55.615234" xlink:href="#ArialMT-2e"/>
       <use x="83.398438" xlink:href="#ArialMT-36"/>
      </g>
     </g>
    </g>
    <g id="ytick_4">
     <g id="line2d_19">
      <path clip-path="url(#p9e89da2fc4)" d="M 48.386 84.461753 
L 334.8 84.461753 
" style="fill:none;stroke:#e6e6e6;stroke-linecap:square;stroke-width:0.8;"/>
     </g>
     <g id="line2d_20">
      <g>
       <use style="stroke:#000000;stroke-width:0.8;" x="48.386" xlink:href="#m30d84eb43d" y="84.461753"/>
      </g>
     </g>
     <g id="text_11">
      <!-- 0.8 -->
      <g transform="translate(24.706 88.75644)scale(0.12 -0.12)">
       <use xlink:href="#ArialMT-30"/>
       <use x="55.615234" xlink:href="#ArialMT-2e"/>
       <use x="83.398438" xlink:href="#ArialMT-38"/>
      </g>
     </g>
    </g>
    <g id="ytick_5">
     <g id="line2d_21">
      <path clip-path="url(#p9e89da2fc4)" d="M 48.386 26.311818 
L 334.8 26.311818 
" style="fill:none;stroke:#e6e6e6;stroke-linecap:square;stroke-width:0.8;"/>
     </g>
     <g id="line2d_22">
      <g>
       <use style="stroke:#000000;stroke-width:0.8;" x="48.386" xlink:href="#m30d84eb43d" y="26.311818"/>
      </g>
     </g>
     <g id="text_12">
      <!-- 1.0 -->
      <g transform="translate(24.706 30.606506)scale(0.12 -0.12)">
       <use xlink:href="#ArialMT-31"/>
       <use x="55.615234" xlink:href="#ArialMT-2e"/>
       <use x="83.398438" xlink:href="#ArialMT-30"/>
      </g>
     </g>
    </g>
    <g id="text_13">
     <!-- Precision -->
     <g transform="translate(18.321 181.175937)rotate(-90)scale(0.12 -0.12)">
      <defs>
       <path d="M 494 0 
L 494 4581 
L 2222 4581 
Q 2678 4581 2919 4538 
Q 3256 4481 3484 4323 
Q 3713 4166 3852 3881 
Q 3991 3597 3991 3256 
Q 3991 2672 3619 2267 
Q 3247 1863 2275 1863 
L 1100 1863 
L 1100 0 
L 494 0 
z
M 1100 2403 
L 2284 2403 
Q 2872 2403 3119 2622 
Q 3366 2841 3366 3238 
Q 3366 3525 3220 3729 
Q 3075 3934 2838 4000 
Q 2684 4041 2272 4041 
L 1100 4041 
L 1100 2403 
z
" id="ArialMT-50" transform="scale(0.015625)"/>
       <path d="M 416 0 
L 416 3319 
L 922 3319 
L 922 2816 
Q 1116 3169 1280 3281 
Q 1444 3394 1641 3394 
Q 1925 3394 2219 3213 
L 2025 2691 
Q 1819 2813 1613 2813 
Q 1428 2813 1281 2702 
Q 1134 2591 1072 2394 
Q 978 2094 978 1738 
L 978 0 
L 416 0 
z
" id="ArialMT-72" transform="scale(0.015625)"/>
       <path d="M 425 3934 
L 425 4581 
L 988 4581 
L 988 3934 
L 425 3934 
z
M 425 0 
L 425 3319 
L 988 3319 
L 988 0 
L 425 0 
z
" id="ArialMT-69" transform="scale(0.015625)"/>
       <path d="M 197 991 
L 753 1078 
Q 800 744 1014 566 
Q 1228 388 1613 388 
Q 2000 388 2187 545 
Q 2375 703 2375 916 
Q 2375 1106 2209 1216 
Q 2094 1291 1634 1406 
Q 1016 1563 777 1677 
Q 538 1791 414 1992 
Q 291 2194 291 2438 
Q 291 2659 392 2848 
Q 494 3038 669 3163 
Q 800 3259 1026 3326 
Q 1253 3394 1513 3394 
Q 1903 3394 2198 3281 
Q 2494 3169 2634 2976 
Q 2775 2784 2828 2463 
L 2278 2388 
Q 2241 2644 2061 2787 
Q 1881 2931 1553 2931 
Q 1166 2931 1000 2803 
Q 834 2675 834 2503 
Q 834 2394 903 2306 
Q 972 2216 1119 2156 
Q 1203 2125 1616 2013 
Q 2213 1853 2448 1751 
Q 2684 1650 2818 1456 
Q 2953 1263 2953 975 
Q 2953 694 2789 445 
Q 2625 197 2315 61 
Q 2006 -75 1616 -75 
Q 969 -75 630 194 
Q 291 463 197 991 
z
" id="ArialMT-73" transform="scale(0.015625)"/>
       <path d="M 213 1659 
Q 213 2581 725 3025 
Q 1153 3394 1769 3394 
Q 2453 3394 2887 2945 
Q 3322 2497 3322 1706 
Q 3322 1066 3130 698 
Q 2938 331 2570 128 
Q 2203 -75 1769 -75 
Q 1072 -75 642 372 
Q 213 819 213 1659 
z
M 791 1659 
Q 791 1022 1069 705 
Q 1347 388 1769 388 
Q 2188 388 2466 706 
Q 2744 1025 2744 1678 
Q 2744 2294 2464 2611 
Q 2184 2928 1769 2928 
Q 1347 2928 1069 2612 
Q 791 2297 791 1659 
z
" id="ArialMT-6f" transform="scale(0.015625)"/>
       <path d="M 422 0 
L 422 3319 
L 928 3319 
L 928 2847 
Q 1294 3394 1984 3394 
Q 2284 3394 2536 3286 
Q 2788 3178 2913 3003 
Q 3038 2828 3088 2588 
Q 3119 2431 3119 2041 
L 3119 0 
L 2556 0 
L 2556 2019 
Q 2556 2363 2490 2533 
Q 2425 2703 2258 2804 
Q 2091 2906 1866 2906 
Q 1506 2906 1245 2678 
Q 984 2450 984 1813 
L 984 0 
L 422 0 
z
" id="ArialMT-6e" transform="scale(0.015625)"/>
      </defs>
      <use xlink:href="#ArialMT-50"/>
      <use x="66.699219" xlink:href="#ArialMT-72"/>
      <use x="100" xlink:href="#ArialMT-65"/>
      <use x="155.615234" xlink:href="#ArialMT-63"/>
      <use x="205.615234" xlink:href="#ArialMT-69"/>
      <use x="227.832031" xlink:href="#ArialMT-73"/>
      <use x="277.832031" xlink:href="#ArialMT-69"/>
      <use x="300.048828" xlink:href="#ArialMT-6f"/>
      <use x="355.664062" xlink:href="#ArialMT-6e"/>
     </g>
    </g>
   </g>
   <g id="line2d_23">
    <path clip-path="url(#p9e89da2fc4)" d="M 61.404818 26.311818 
L 61.762233 26.311818 
L 62.119647 26.311818 
L 63.638658 26.311818 
L 64.710901 26.311818 
L 66.67668 26.311818 
L 68.731813 26.311818 
L 71.591128 26.311818 
L 75.075918 26.311818 
L 78.739415 26.311818 
L 84.189984 27.44314 
L 89.640553 28.1347 
L 95.269829 28.589231 
L 102.775531 28.179589 
L 111.800243 28.862254 
L 120.91431 28.90394 
L 130.028376 29.30538 
L 140.482746 29.235558 
L 150.490348 28.910375 
L 160.051182 28.919439 
L 171.667149 29.570822 
L 183.104409 29.685273 
L 192.039768 29.65151 
L 201.868663 29.420462 
L 213.127215 29.192205 
L 222.866757 29.177916 
L 233.857248 29.43976 
L 242.881961 29.98504 
L 253.246978 30.973402 
L 263.343933 31.241921 
L 271.296403 32.369103 
L 278.623397 33.312212 
L 286.665221 34.925795 
L 294.61769 37.655015 
L 300.246966 41.267016 
L 305.161414 44.20872 
L 308.646204 48.258854 
L 311.594872 53.334213 
L 314.543541 59.807488 
L 317.134795 64.966908 
L 318.921867 69.941412 
L 320.262171 74.728286 
L 320.708939 78.630333 
L 321.155707 81.151879 
L 321.24506 82.835294 
L 321.334414 84.685345 
L 321.513121 85.985332 
L 321.602475 86.597873 
L 321.602475 87.285637 
L 321.781182 87.439357 
L 321.781182 87.625839 
L 321.781182 87.749993 
" style="fill:none;stroke:#e24a33;stroke-linecap:round;stroke-width:2;"/>
   </g>
   <g id="line2d_24">
    <path clip-path="url(#p9e89da2fc4)" d="M 61.411862 26.311818 
L 61.508259 26.311818 
L 61.604657 26.311818 
L 61.797451 26.311818 
L 61.990246 26.311818 
L 62.086644 26.311818 
L 62.279438 26.311818 
L 62.472233 26.311818 
L 62.568631 26.311818 
L 63.629002 26.311818 
L 63.918194 26.311818 
L 64.978565 26.311818 
L 65.364154 26.311818 
L 65.942539 26.311818 
L 66.520923 26.311818 
L 67.581294 26.311818 
L 68.930858 33.490822 
L 70.184023 32.497981 
L 72.593958 31.198367 
L 74.618303 32.497981 
L 76.835443 33.360295 
L 79.920159 33.653982 
L 84.258041 34.618952 
L 88.306731 34.388198 
L 93.415792 33.963125 
L 98.139263 33.728902 
L 103.151927 33.498889 
L 107.586206 32.825558 
L 113.080857 32.667002 
L 117.804329 32.621911 
L 123.106184 32.091246 
L 128.118848 32.069237 
L 133.999088 31.983138 
L 140.843302 31.843322 
L 147.301926 31.749381 
L 154.049743 31.943055 
L 160.41197 31.860476 
L 168.50935 31.952464 
L 176.895922 31.784193 
L 183.740136 31.483699 
L 189.909568 31.870268 
L 197.428563 32.16313 
L 205.043956 32.046526 
L 212.659349 32.297307 
L 219.98555 32.53476 
L 227.311751 32.912265 
L 234.734349 32.790479 
L 241.385768 33.595735 
L 248.519174 34.035995 
L 254.399414 34.904711 
L 260.954436 36.342343 
L 267.123868 37.695806 
L 271.558148 39.423559 
L 275.799632 41.190266 
L 280.908693 42.236696 
L 286.210549 43.986214 
L 290.837623 45.368017 
L 296.139479 48.167716 
L 299.513387 50.37907 
L 303.369282 52.542495 
L 305.972012 55.849926 
L 308.478344 59.376679 
L 310.791881 63.195042 
L 312.816226 68.26979 
L 314.647776 73.099122 
L 316.093736 76.318576 
L 316.961313 80.682542 
L 318.118081 84.461753 
L 318.88926 88.229937 
L 319.853234 92.013692 
L 320.335221 94.864571 
L 321.010003 96.915448 
L 321.299195 98.513033 
L 321.49199 100.04452 
L 321.49199 101.416158 
L 321.684784 102.611773 
L 321.781182 103.349408 
L 321.781182 103.755594 
L 321.781182 104.217921 
L 321.781182 104.448333 
L 321.781182 104.505859 
" style="fill:none;stroke:#348abd;stroke-dasharray:2,3,2,3;stroke-dashoffset:0;stroke-linecap:round;stroke-width:2;"/>
   </g>
   <g id="line2d_25">
    <path clip-path="url(#p9e89da2fc4)" d="M 61.411648 26.311818 
L 68.04833 26.311818 
L 68.336882 30.240868 
L 69.972006 29.50687 
L 71.895682 28.931185 
L 74.685012 28.388602 
L 75.64685 28.250149 
L 76.897239 29.857546 
L 77.859077 31.296098 
L 80.648407 30.587549 
L 83.053002 30.120766 
L 84.303392 32.269803 
L 87.477457 31.560007 
L 88.727846 31.324744 
L 90.170603 32.012792 
L 91.517176 31.763375 
L 93.056117 32.351129 
L 97.480572 31.625781 
L 99.500431 32.055022 
L 104.694356 31.379351 
L 107.483686 31.663039 
L 108.830259 31.514099 
L 110.946303 31.839378 
L 118.352455 31.133537 
L 127.10518 30.501295 
L 128.836489 30.797437 
L 137.396847 30.299657 
L 139.993809 30.515428 
L 152.401519 29.949979 
L 155.383216 29.836057 
L 157.883995 30.31034 
L 160.577141 30.203305 
L 163.07792 30.643284 
L 165.963434 30.78489 
L 170.291704 30.609857 
L 172.503932 30.76965 
L 176.639835 30.847322 
L 186.354398 30.500024 
L 189.817015 30.600161 
L 193.183448 30.492259 
L 195.491859 30.623784 
L 198.473556 30.926892 
L 202.032357 31.004483 
L 204.821687 31.29172 
L 207.322466 31.207862 
L 210.304163 31.474146 
L 215.78664 31.294065 
L 219.056889 31.36379 
L 221.846219 31.613724 
L 224.827916 31.683637 
L 228.290533 31.574256 
L 230.598944 32.139763 
L 232.811171 32.535329 
L 234.927215 33.230685 
L 237.812729 33.271252 
L 240.986794 33.447711 
L 243.006654 33.809231 
L 245.026513 33.873385 
L 247.046373 34.221381 
L 249.354784 34.267655 
L 251.663195 34.590405 
L 254.260158 35.43723 
L 257.338039 35.699747 
L 260.415921 36.084916 
L 261.954861 36.532436 
L 266.571683 37.196898 
L 268.976278 37.325063 
L 271.957976 37.666237 
L 273.881652 38.052903 
L 274.554938 39.459413 
L 276.574798 40.521853 
L 278.883209 40.843196 
L 282.634377 41.746677 
L 283.692399 42.912534 
L 285.904626 44.410693 
L 287.635935 45.040028 
L 288.309221 45.848357 
L 289.751978 47.217617 
L 291.290919 48.340011 
L 293.984065 49.434604 
L 295.042087 50.75101 
L 297.254314 51.829454 
L 298.600887 53.258827 
L 300.813114 53.992201 
L 302.448239 54.958136 
L 304.083364 55.531849 
L 305.429937 56.863088 
L 306.77651 58.887112 
L 307.161245 60.091863 
L 308.507818 61.337104 
L 309.084921 63.000718 
L 310.720045 64.324682 
L 313.028456 69.697416 
L 313.413192 71.554116 
L 314.37503 73.597968 
L 315.433051 77.535256 
L 315.625419 79.134491 
L 316.394889 80.537524 
L 317.356727 81.667443 
L 317.645279 83.392046 
L 318.318565 84.948217 
L 318.607117 85.999288 
L 318.799484 87.192361 
L 319.184219 87.998936 
L 319.280403 89.119187 
L 319.568955 90.71679 
L 319.857506 92.997523 
L 320.530792 94.645831 
L 320.626976 96.068788 
L 321.107895 99.943751 
L 321.396447 100.421338 
L 321.396447 101.66776 
L 321.588814 101.921044 
L 321.684998 103.76627 
L 321.781182 103.745285 
L 321.781182 104.033862 
L 321.781182 104.033862 
" style="fill:none;stroke:#988ed5;stroke-dasharray:2,6,2,6;stroke-dashoffset:0;stroke-linecap:round;stroke-width:2;"/>
   </g>
   <g id="line2d_26">
    <path clip-path="url(#p9e89da2fc4)" d="M 321.781182 224.446506 
L 321.781182 222.840024 
L 321.117293 222.950623 
L 321.117293 222.924668 
L 321.117293 222.846719 
L 320.232108 222.98596 
L 320.232108 222.855698 
L 319.125627 222.893192 
L 319.125627 222.630665 
L 318.240441 222.691803 
L 317.797849 222.377908 
L 317.13396 222.410231 
L 317.13396 222.356891 
L 316.248775 222.203483 
L 315.584886 222.289469 
L 314.920997 222.241022 
L 314.920997 221.807309 
L 313.814516 221.814469 
L 313.371923 221.597703 
L 312.265442 221.410162 
L 310.716368 221.362051 
L 310.273775 221.280119 
L 309.38859 221.284122 
L 309.167294 221.030929 
L 308.060813 220.949458 
L 308.060813 220.778186 
L 306.069146 220.144933 
L 304.741369 220.115555 
L 304.298776 219.731264 
L 303.413591 219.699953 
L 303.192295 219.370315 
L 302.30711 218.913197 
L 301.643221 218.572986 
L 300.536739 218.472909 
L 298.987665 217.961157 
L 298.766369 217.516373 
L 298.323777 217.479495 
L 297.659888 217.247716 
L 296.774703 217.172032 
L 295.889517 216.311358 
L 295.225629 215.802049 
L 294.119147 215.342616 
L 293.676555 214.958762 
L 292.79137 214.490105 
L 291.020999 213.882632 
L 290.799703 213.20086 
L 289.029333 212.195941 
L 287.922852 211.89453 
L 287.037666 211.258898 
L 285.931185 210.638512 
L 285.267296 210.065611 
L 284.382111 209.550239 
L 283.27563 209.253016 
L 281.283963 209.183486 
L 280.177482 208.469562 
L 279.292297 207.627624 
L 274.866371 206.206716 
L 272.874705 205.432299 
L 271.768223 203.926082 
L 270.440446 203.006513 
L 268.448779 202.282202 
L 266.457113 201.33588 
L 265.129335 200.177837 
L 263.580261 199.370967 
L 261.367298 198.719435 
L 258.711743 198.14874 
L 249.417299 194.776868 
L 246.98304 194.294014 
L 245.655263 193.618841 
L 242.557115 192.649797 
L 239.237671 191.853811 
L 237.909893 190.275567 
L 233.483968 187.728588 
L 230.607116 187.368488 
L 228.615449 186.534915 
L 225.517302 185.031957 
L 223.304339 184.126599 
L 220.87008 182.769041 
L 218.657117 181.86004 
L 215.780265 180.949303 
L 213.567303 179.579858 
L 210.469155 177.980384 
L 207.592303 176.780079 
L 205.158044 174.965786 
L 201.617304 174.165915 
L 198.961748 173.190133 
L 195.421008 172.402786 
L 193.429342 170.706048 
L 190.331194 170.302132 
L 189.003416 168.071649 
L 185.462676 167.829499 
L 181.921935 166.292155 
L 179.487676 164.696107 
L 176.389528 163.880305 
L 172.406195 162.610342 
L 169.308047 160.627267 
L 167.316381 159.160024 
L 162.447863 158.879823 
L 158.685826 158.339585 
L 156.030271 157.111799 
L 152.710827 156.955337 
L 149.391383 155.217617 
L 145.40805 154.822319 
L 140.318235 155.382934 
L 138.326569 154.129307 
L 135.228421 156.016066 
L 131.68768 155.137855 
L 129.91731 152.586311 
L 125.712681 154.039998 
L 122.614533 153.699098 
L 119.516385 151.905629 
L 114.869163 152.665647 
L 112.213608 152.755779 
L 108.230275 151.809666 
L 106.459905 149.510832 
L 103.361757 150.165908 
L 101.812683 147.61184 
L 100.927498 141.828523 
L 98.493239 140.722339 
L 96.05898 138.750168 
L 94.509906 135.342945 
L 92.960832 133.902005 
L 90.969166 135.003284 
L 88.756203 135.89084 
L 86.54324 133.937387 
L 82.117315 133.635522 
L 80.568241 128.291181 
L 79.461759 129.333355 
L 77.912685 124.086044 
L 77.248796 126.752614 
L 76.142315 122.25921 
L 75.478426 116.975694 
L 73.929352 114.955011 
L 72.158982 121.900751 
L 71.273797 124.653619 
L 70.167316 123.228375 
L 68.839538 126.955935 
L 67.954353 123.228375 
L 67.069168 132.683649 
L 66.405279 131.304755 
L 65.962686 113.53672 
L 64.192316 137.073598 
L 63.97102 123.228375 
L 63.307131 115.773256 
L 63.307131 98.999236 
L 62.864539 90.922856 
L 62.643242 67.847486 
L 61.979353 98.999236 
L 61.758057 123.228375 
L 61.758057 26.311818 
L 61.758057 26.311818 
" style="fill:none;stroke:#777777;stroke-dasharray:6,6;stroke-dashoffset:0;stroke-linecap:round;stroke-width:2;"/>
   </g>
   <g id="line2d_27">
    <path clip-path="url(#p9e89da2fc4)" d="M 61.780998 26.311818 
L 62.479297 26.311818 
L 62.94483 26.311818 
L 63.875896 26.311818 
L 64.108663 26.311818 
L 65.272495 26.311818 
L 66.203561 26.311818 
L 68.531226 26.311818 
L 71.091658 26.311818 
L 76.212521 30.78489 
L 81.56615 42.113431 
L 88.316379 47.245795 
L 95.066608 59.996231 
L 106.704933 66.19341 
L 118.343258 77.217485 
L 131.145416 89.320233 
L 143.48204 100.074948 
L 160.473995 106.773951 
L 175.371051 122.699499 
L 193.061305 133.190748 
L 210.05326 147.080666 
L 226.812448 160.69007 
L 241.709505 171.686654 
L 253.115063 179.767662 
L 264.055089 187.259868 
L 273.831282 194.901135 
L 284.073008 199.855325 
L 291.056003 204.303169 
L 297.573465 208.524926 
L 303.625395 212.113359 
L 305.25476 215.69567 
L 308.746258 217.810719 
L 310.60839 220.355621 
L 312.936055 222.449691 
L 314.798187 223.990828 
L 316.427552 224.776045 
L 317.358618 225.421192 
L 318.289684 226.463794 
L 318.987984 227.030752 
L 319.22075 227.375901 
L 319.91905 227.581466 
L 319.91905 228.123471 
L 320.617349 228.298778 
L 321.082882 228.503457 
L 321.082882 228.672322 
L 321.082882 228.768528 
L 321.315649 228.88137 
L 321.315649 228.977036 
L 321.548415 228.945975 
L 321.548415 229.017575 
L 321.548415 229.041416 
L 321.548415 229.065244 
L 321.781182 229.034195 
" style="fill:none;stroke:#fbc15e;stroke-dasharray:4,3,0.6,3;stroke-dashoffset:0;stroke-linecap:round;stroke-width:2;"/>
   </g>
   <g id="line2d_28">
    <path clip-path="url(#p9e89da2fc4)" d="M 61.990246 26.311818 
L 62.665028 26.311818 
L 68.063281 26.311818 
L 73.461534 26.311818 
L 77.510224 26.311818 
L 82.233696 26.311818 
L 84.258041 34.618952 
L 86.282386 41.222058 
L 91.680639 44.483673 
L 94.379765 75.591424 
L 98.428455 91.832871 
L 107.200617 104.470332 
L 119.346687 120.175885 
L 130.143193 142.611687 
L 145.663171 162.407409 
L 161.183149 184.249911 
L 176.703127 203.289879 
L 192.223105 218.965079 
L 211.791773 227.630901 
L 224.612624 238.795171 
L 239.45782 247.090739 
L 254.977798 253.98881 
L 265.099523 259.634151 
L 274.546466 264.709982 
L 283.318628 268.430762 
L 291.416008 271.64434 
L 298.163824 274.218024 
L 306.935985 275.752793 
L 308.285549 278.379418 
L 313.00902 280.173861 
L 316.382929 281.551514 
L 317.732492 283.034734 
L 319.082055 284.025685 
L 321.1064 284.57785 
L 321.1064 285.088161 
L 321.1064 285.609221 
L 321.1064 285.906849 
L 321.781182 286.084572 
L 321.781182 286.296859 
L 321.781182 286.472944 
L 321.781182 286.547794 
L 321.781182 286.61402 
L 321.781182 286.647026 
L 321.781182 286.679959 
L 321.781182 286.688182 
" style="fill:none;stroke:#8eba42;stroke-dasharray:4,3,4,3,0.6,3;stroke-dashoffset:0;stroke-linecap:round;stroke-width:2;"/>
   </g>
   <g id="line2d_29">
    <path clip-path="url(#p9e89da2fc4)" d="M 61.659087 26.311818 
L 62.17452 26.311818 
L 62.689954 26.311818 
L 63.54901 26.311818 
L 64.923499 26.311818 
L 66.297988 36.003474 
L 68.0161 40.494729 
L 69.390589 38.179152 
L 71.624134 40.157041 
L 73.685868 45.191667 
L 75.40398 52.156233 
L 76.95028 49.806741 
L 79.699259 51.162217 
L 82.963671 51.594398 
L 87.087138 54.335883 
L 92.069662 56.840534 
L 97.223997 56.260282 
L 102.378332 56.80242 
L 106.845422 58.508929 
L 113.202435 61.810325 
L 120.933937 65.465141 
L 127.806383 67.571195 
L 135.194263 74.299628 
L 143.269387 80.796424 
L 151.00089 85.702757 
L 161.48137 91.653167 
L 166.979327 97.661431 
L 175.741697 102.145528 
L 182.614143 106.096158 
L 191.03289 111.714435 
L 199.795259 115.561717 
L 210.103928 121.724627 
L 217.491808 127.605252 
L 226.5978 133.410023 
L 233.298435 138.069841 
L 240.342692 142.141653 
L 247.38695 146.022981 
L 253.915774 149.401828 
L 260.100976 153.12515 
L 265.083499 157.196348 
L 270.066023 159.355753 
L 275.392169 163.164255 
L 280.890126 165.82906 
L 284.49816 168.950187 
L 287.075328 171.131364 
L 289.652495 174.318116 
L 295.150452 175.937987 
L 298.930298 178.594962 
L 300.992032 181.862893 
L 302.538332 183.571451 
L 305.459122 185.273521 
L 307.349044 186.706596 
L 309.410778 188.156815 
L 310.613456 189.490346 
L 311.987946 190.810368 
L 314.221491 191.736888 
L 315.080547 192.982534 
L 315.939602 193.667729 
L 316.626847 194.423394 
L 317.657714 195.070908 
L 318.51677 195.244457 
L 319.032203 195.61217 
L 319.547637 195.740902 
L 319.891259 196.250265 
L 320.578504 196.528178 
L 320.750315 196.87753 
L 321.093937 196.98132 
L 321.265748 197.131214 
L 321.265748 197.424761 
L 321.265748 197.652083 
L 321.781182 197.674572 
L 321.781182 197.674572 
L 321.781182 197.771503 
L 321.781182 197.771503 
" style="fill:none;stroke:#ffb5b8;stroke-dasharray:0.6,3,0.6,3,4,3;stroke-dashoffset:0;stroke-linecap:round;stroke-width:2;"/>
   </g>
   <g id="line2d_30">
    <path clip-path="url(#p9e89da2fc4)" d="M 321.781182 205.198386 
L 321.781182 203.695426 
L 321.598013 203.588465 
L 321.598013 203.401164 
L 321.048508 203.265455 
L 320.68217 203.079891 
L 320.68217 202.125271 
L 320.499002 202.045894 
L 320.499002 200.679372 
L 319.949496 200.563608 
L 319.766327 200.314823 
L 319.766327 199.545653 
L 319.216822 198.401914 
L 317.934642 197.325955 
L 317.568305 196.361552 
L 317.201967 195.778333 
L 316.652462 195.603581 
L 316.102956 194.765514 
L 316.102956 194.208272 
L 315.919787 193.432844 
L 315.919787 192.249247 
L 315.736619 191.524874 
L 315.736619 190.343167 
L 314.820776 190.202238 
L 314.637607 189.489537 
L 313.721764 187.316332 
L 312.256416 185.296008 
L 311.340573 184.637966 
L 310.791067 183.502956 
L 309.875224 182.816065 
L 309.325719 181.684923 
L 308.593044 180.772581 
L 307.310864 179.666413 
L 306.57819 178.564937 
L 303.097987 175.806589 
L 302.182144 174.505256 
L 299.800953 173.28782 
L 297.60293 171.911692 
L 295.588075 170.019643 
L 293.390052 168.820108 
L 290.459355 166.137075 
L 287.528658 164.328251 
L 284.964298 161.969594 
L 282.0336 159.528507 
L 277.820723 157.956808 
L 274.157352 153.927198 
L 271.226654 150.461928 
L 265.914766 147.999864 
L 262.251394 144.561549 
L 257.67218 141.366085 
L 253.276134 137.717372 
L 250.345437 133.990312 
L 245.033548 130.124361 
L 238.805816 126.699036 
L 233.493927 122.400029 
L 226.899859 117.488443 
L 220.672127 113.232147 
L 213.528553 108.774441 
L 208.033495 102.810812 
L 201.988932 98.999236 
L 195.578032 96.44088 
L 189.167132 90.562304 
L 180.37504 88.815975 
L 171.766117 81.729876 
L 164.988879 78.216331 
L 159.493822 74.317216 
L 152.350248 72.969282 
L 147.954202 67.922731 
L 141.360133 61.925734 
L 135.681907 62.106054 
L 129.454175 61.969797 
L 125.241298 61.465431 
L 119.563072 57.346895 
L 113.884846 57.107734 
L 110.221475 54.797428 
L 105.459092 54.62452 
L 102.162057 49.139272 
L 96.117494 46.265227 
L 93.186797 43.599636 
L 87.69174 37.941805 
L 84.577874 30.819565 
L 80.914502 31.646675 
L 78.533311 29.372341 
L 77.617468 26.311818 
L 61.498633 26.311818 
L 61.498633 26.311818 
" style="fill:none;stroke:#e24a33;stroke-dasharray:0.6,3;stroke-dashoffset:0;stroke-linecap:round;stroke-width:2;"/>
   </g>
   <g id="patch_3">
    <path d="M 48.386 299.707 
L 48.386 13.293 
" style="fill:none;stroke:#808080;stroke-linecap:square;stroke-linejoin:miter;"/>
   </g>
   <g id="patch_4">
    <path d="M 334.8 299.707 
L 334.8 13.293 
" style="fill:none;stroke:#808080;stroke-linecap:square;stroke-linejoin:miter;"/>
   </g>
   <g id="patch_5">
    <path d="M 48.386 299.707 
L 334.8 299.707 
" style="fill:none;stroke:#808080;stroke-linecap:square;stroke-linejoin:miter;"/>
   </g>
   <g id="patch_6">
    <path d="M 48.386 13.293 
L 334.8 13.293 
" style="fill:none;stroke:#808080;stroke-linecap:square;stroke-linejoin:miter;"/>
   </g>
   <g id="legend_1">
    <g id="patch_7">
     <path d="M 56.786 293.707 
L 312.48725 293.707 
Q 314.88725 293.707 314.88725 291.307 
L 314.88725 222.06325 
Q 314.88725 219.66325 312.48725 219.66325 
L 56.786 219.66325 
Q 54.386 219.66325 54.386 222.06325 
L 54.386 291.307 
Q 54.386 293.707 56.786 293.707 
z
" style="fill:none;stroke:#cccccc;stroke-linejoin:miter;stroke-width:0.5;"/>
    </g>
    <g id="line2d_31">
     <path d="M 60.386 230.052625 
L 81.986 230.052625 
" style="fill:none;stroke:#e24a33;stroke-linecap:round;stroke-width:2;"/>
    </g>
    <g id="line2d_32"/>
    <g id="text_14">
     <!-- Ours:AutoPlace -->
     <g transform="translate(91.586 234.252625)scale(0.12 -0.12)">
      <defs>
       <path d="M 309 2231 
Q 309 3372 921 4017 
Q 1534 4663 2503 4663 
Q 3138 4663 3647 4359 
Q 4156 4056 4423 3514 
Q 4691 2972 4691 2284 
Q 4691 1588 4409 1038 
Q 4128 488 3612 205 
Q 3097 -78 2500 -78 
Q 1853 -78 1343 234 
Q 834 547 571 1087 
Q 309 1628 309 2231 
z
M 934 2222 
Q 934 1394 1379 917 
Q 1825 441 2497 441 
Q 3181 441 3623 922 
Q 4066 1403 4066 2288 
Q 4066 2847 3877 3264 
Q 3688 3681 3323 3911 
Q 2959 4141 2506 4141 
Q 1863 4141 1398 3698 
Q 934 3256 934 2222 
z
" id="ArialMT-4f" transform="scale(0.015625)"/>
       <path d="M 2597 0 
L 2597 488 
Q 2209 -75 1544 -75 
Q 1250 -75 995 37 
Q 741 150 617 320 
Q 494 491 444 738 
Q 409 903 409 1263 
L 409 3319 
L 972 3319 
L 972 1478 
Q 972 1038 1006 884 
Q 1059 663 1231 536 
Q 1403 409 1656 409 
Q 1909 409 2131 539 
Q 2353 669 2445 892 
Q 2538 1116 2538 1541 
L 2538 3319 
L 3100 3319 
L 3100 0 
L 2597 0 
z
" id="ArialMT-75" transform="scale(0.015625)"/>
       <path d="M 578 2678 
L 578 3319 
L 1219 3319 
L 1219 2678 
L 578 2678 
z
M 578 0 
L 578 641 
L 1219 641 
L 1219 0 
L 578 0 
z
" id="ArialMT-3a" transform="scale(0.015625)"/>
       <path d="M -9 0 
L 1750 4581 
L 2403 4581 
L 4278 0 
L 3588 0 
L 3053 1388 
L 1138 1388 
L 634 0 
L -9 0 
z
M 1313 1881 
L 2866 1881 
L 2388 3150 
Q 2169 3728 2063 4100 
Q 1975 3659 1816 3225 
L 1313 1881 
z
" id="ArialMT-41" transform="scale(0.015625)"/>
       <path d="M 1650 503 
L 1731 6 
Q 1494 -44 1306 -44 
Q 1000 -44 831 53 
Q 663 150 594 308 
Q 525 466 525 972 
L 525 2881 
L 113 2881 
L 113 3319 
L 525 3319 
L 525 4141 
L 1084 4478 
L 1084 3319 
L 1650 3319 
L 1650 2881 
L 1084 2881 
L 1084 941 
Q 1084 700 1114 631 
Q 1144 563 1211 522 
Q 1278 481 1403 481 
Q 1497 481 1650 503 
z
" id="ArialMT-74" transform="scale(0.015625)"/>
      </defs>
      <use xlink:href="#ArialMT-4f"/>
      <use x="77.783203" xlink:href="#ArialMT-75"/>
      <use x="133.398438" xlink:href="#ArialMT-72"/>
      <use x="166.699219" xlink:href="#ArialMT-73"/>
      <use x="216.699219" xlink:href="#ArialMT-3a"/>
      <use x="244.482422" xlink:href="#ArialMT-41"/>
      <use x="311.181641" xlink:href="#ArialMT-75"/>
      <use x="366.796875" xlink:href="#ArialMT-74"/>
      <use x="394.580078" xlink:href="#ArialMT-6f"/>
      <use x="450.195312" xlink:href="#ArialMT-50"/>
      <use x="516.894531" xlink:href="#ArialMT-6c"/>
      <use x="539.111328" xlink:href="#ArialMT-61"/>
      <use x="594.726562" xlink:href="#ArialMT-63"/>
      <use x="644.726562" xlink:href="#ArialMT-65"/>
     </g>
    </g>
    <g id="line2d_33">
     <path d="M 60.386 247.027 
L 81.986 247.027 
" style="fill:none;stroke:#348abd;stroke-dasharray:2,3,2,3;stroke-dashoffset:0;stroke-linecap:round;stroke-width:2;"/>
    </g>
    <g id="line2d_34"/>
    <g id="text_15">
     <!-- NetVLAD -->
     <g transform="translate(91.586 251.227)scale(0.12 -0.12)">
      <defs>
       <path d="M 488 0 
L 488 4581 
L 1109 4581 
L 3516 984 
L 3516 4581 
L 4097 4581 
L 4097 0 
L 3475 0 
L 1069 3600 
L 1069 0 
L 488 0 
z
" id="ArialMT-4e" transform="scale(0.015625)"/>
       <path d="M 1803 0 
L 28 4581 
L 684 4581 
L 1875 1253 
Q 2019 853 2116 503 
Q 2222 878 2363 1253 
L 3600 4581 
L 4219 4581 
L 2425 0 
L 1803 0 
z
" id="ArialMT-56" transform="scale(0.015625)"/>
       <path d="M 469 0 
L 469 4581 
L 1075 4581 
L 1075 541 
L 3331 541 
L 3331 0 
L 469 0 
z
" id="ArialMT-4c" transform="scale(0.015625)"/>
       <path d="M 494 0 
L 494 4581 
L 2072 4581 
Q 2606 4581 2888 4516 
Q 3281 4425 3559 4188 
Q 3922 3881 4101 3404 
Q 4281 2928 4281 2316 
Q 4281 1794 4159 1391 
Q 4038 988 3847 723 
Q 3656 459 3429 307 
Q 3203 156 2883 78 
Q 2563 0 2147 0 
L 494 0 
z
M 1100 541 
L 2078 541 
Q 2531 541 2789 625 
Q 3047 709 3200 863 
Q 3416 1078 3536 1442 
Q 3656 1806 3656 2325 
Q 3656 3044 3420 3430 
Q 3184 3816 2847 3947 
Q 2603 4041 2063 4041 
L 1100 4041 
L 1100 541 
z
" id="ArialMT-44" transform="scale(0.015625)"/>
      </defs>
      <use xlink:href="#ArialMT-4e"/>
      <use x="72.216797" xlink:href="#ArialMT-65"/>
      <use x="127.832031" xlink:href="#ArialMT-74"/>
      <use x="155.615234" xlink:href="#ArialMT-56"/>
      <use x="222.314453" xlink:href="#ArialMT-4c"/>
      <use x="277.929688" xlink:href="#ArialMT-41"/>
      <use x="344.628906" xlink:href="#ArialMT-44"/>
     </g>
    </g>
    <g id="line2d_35">
     <path d="M 60.386 264.147625 
L 81.986 264.147625 
" style="fill:none;stroke:#988ed5;stroke-dasharray:2,6,2,6;stroke-dashoffset:0;stroke-linecap:round;stroke-width:2;"/>
    </g>
    <g id="line2d_36"/>
    <g id="text_16">
     <!-- SeqNet -->
     <g transform="translate(91.586 268.347625)scale(0.12 -0.12)">
      <defs>
       <path d="M 288 1472 
L 859 1522 
Q 900 1178 1048 958 
Q 1197 738 1509 602 
Q 1822 466 2213 466 
Q 2559 466 2825 569 
Q 3091 672 3220 851 
Q 3350 1031 3350 1244 
Q 3350 1459 3225 1620 
Q 3100 1781 2813 1891 
Q 2628 1963 1997 2114 
Q 1366 2266 1113 2400 
Q 784 2572 623 2826 
Q 463 3081 463 3397 
Q 463 3744 659 4045 
Q 856 4347 1234 4503 
Q 1613 4659 2075 4659 
Q 2584 4659 2973 4495 
Q 3363 4331 3572 4012 
Q 3781 3694 3797 3291 
L 3216 3247 
Q 3169 3681 2898 3903 
Q 2628 4125 2100 4125 
Q 1550 4125 1298 3923 
Q 1047 3722 1047 3438 
Q 1047 3191 1225 3031 
Q 1400 2872 2139 2705 
Q 2878 2538 3153 2413 
Q 3553 2228 3743 1945 
Q 3934 1663 3934 1294 
Q 3934 928 3725 604 
Q 3516 281 3123 101 
Q 2731 -78 2241 -78 
Q 1619 -78 1198 103 
Q 778 284 539 648 
Q 300 1013 288 1472 
z
" id="ArialMT-53" transform="scale(0.015625)"/>
       <path d="M 2538 -1272 
L 2538 353 
Q 2406 169 2170 47 
Q 1934 -75 1669 -75 
Q 1078 -75 651 397 
Q 225 869 225 1691 
Q 225 2191 398 2587 
Q 572 2984 901 3189 
Q 1231 3394 1625 3394 
Q 2241 3394 2594 2875 
L 2594 3319 
L 3100 3319 
L 3100 -1272 
L 2538 -1272 
z
M 803 1669 
Q 803 1028 1072 708 
Q 1341 388 1716 388 
Q 2075 388 2334 692 
Q 2594 997 2594 1619 
Q 2594 2281 2320 2615 
Q 2047 2950 1678 2950 
Q 1313 2950 1058 2639 
Q 803 2328 803 1669 
z
" id="ArialMT-71" transform="scale(0.015625)"/>
      </defs>
      <use xlink:href="#ArialMT-53"/>
      <use x="66.699219" xlink:href="#ArialMT-65"/>
      <use x="122.314453" xlink:href="#ArialMT-71"/>
      <use x="177.929688" xlink:href="#ArialMT-4e"/>
      <use x="250.146484" xlink:href="#ArialMT-65"/>
      <use x="305.761719" xlink:href="#ArialMT-74"/>
     </g>
    </g>
    <g id="line2d_37">
     <path d="M 60.386 281.122 
L 81.986 281.122 
" style="fill:none;stroke:#777777;stroke-dasharray:6,6;stroke-dashoffset:0;stroke-linecap:round;stroke-width:2;"/>
    </g>
    <g id="line2d_38"/>
    <g id="text_17">
     <!-- MinkLoc3D -->
     <g transform="translate(91.586 285.322)scale(0.12 -0.12)">
      <defs>
       <path d="M 475 0 
L 475 4581 
L 1388 4581 
L 2472 1338 
Q 2622 884 2691 659 
Q 2769 909 2934 1394 
L 4031 4581 
L 4847 4581 
L 4847 0 
L 4263 0 
L 4263 3834 
L 2931 0 
L 2384 0 
L 1059 3900 
L 1059 0 
L 475 0 
z
" id="ArialMT-4d" transform="scale(0.015625)"/>
       <path d="M 425 0 
L 425 4581 
L 988 4581 
L 988 1969 
L 2319 3319 
L 3047 3319 
L 1778 2088 
L 3175 0 
L 2481 0 
L 1384 1697 
L 988 1316 
L 988 0 
L 425 0 
z
" id="ArialMT-6b" transform="scale(0.015625)"/>
       <path d="M 269 1209 
L 831 1284 
Q 928 806 1161 595 
Q 1394 384 1728 384 
Q 2125 384 2398 659 
Q 2672 934 2672 1341 
Q 2672 1728 2419 1979 
Q 2166 2231 1775 2231 
Q 1616 2231 1378 2169 
L 1441 2663 
Q 1497 2656 1531 2656 
Q 1891 2656 2178 2843 
Q 2466 3031 2466 3422 
Q 2466 3731 2256 3934 
Q 2047 4138 1716 4138 
Q 1388 4138 1169 3931 
Q 950 3725 888 3313 
L 325 3413 
Q 428 3978 793 4289 
Q 1159 4600 1703 4600 
Q 2078 4600 2393 4439 
Q 2709 4278 2876 4000 
Q 3044 3722 3044 3409 
Q 3044 3113 2884 2869 
Q 2725 2625 2413 2481 
Q 2819 2388 3044 2092 
Q 3269 1797 3269 1353 
Q 3269 753 2831 336 
Q 2394 -81 1725 -81 
Q 1122 -81 723 278 
Q 325 638 269 1209 
z
" id="ArialMT-33" transform="scale(0.015625)"/>
      </defs>
      <use xlink:href="#ArialMT-4d"/>
      <use x="83.300781" xlink:href="#ArialMT-69"/>
      <use x="105.517578" xlink:href="#ArialMT-6e"/>
      <use x="161.132812" xlink:href="#ArialMT-6b"/>
      <use x="211.132812" xlink:href="#ArialMT-4c"/>
      <use x="266.748047" xlink:href="#ArialMT-6f"/>
      <use x="322.363281" xlink:href="#ArialMT-63"/>
      <use x="372.363281" xlink:href="#ArialMT-33"/>
      <use x="427.978516" xlink:href="#ArialMT-44"/>
     </g>
    </g>
    <g id="line2d_39">
     <path d="M 187.6235 230.052625 
L 209.2235 230.052625 
" style="fill:none;stroke:#fbc15e;stroke-dasharray:4,3,0.6,3;stroke-dashoffset:0;stroke-linecap:round;stroke-width:2;"/>
    </g>
    <g id="line2d_40"/>
    <g id="text_18">
     <!-- M2DP -->
     <g transform="translate(218.8235 234.252625)scale(0.12 -0.12)">
      <use xlink:href="#ArialMT-4d"/>
      <use x="83.300781" xlink:href="#ArialMT-32"/>
      <use x="138.916016" xlink:href="#ArialMT-44"/>
      <use x="211.132812" xlink:href="#ArialMT-50"/>
     </g>
    </g>
    <g id="line2d_41">
     <path d="M 187.6235 247.027 
L 209.2235 247.027 
" style="fill:none;stroke:#8eba42;stroke-dasharray:4,3,4,3,0.6,3;stroke-dashoffset:0;stroke-linecap:round;stroke-width:2;"/>
    </g>
    <g id="line2d_42"/>
    <g id="text_19">
     <!-- ScanContext -->
     <g transform="translate(218.8235 251.227)scale(0.12 -0.12)">
      <defs>
       <path d="M 3763 1606 
L 4369 1453 
Q 4178 706 3683 314 
Q 3188 -78 2472 -78 
Q 1731 -78 1267 223 
Q 803 525 561 1097 
Q 319 1669 319 2325 
Q 319 3041 592 3573 
Q 866 4106 1370 4382 
Q 1875 4659 2481 4659 
Q 3169 4659 3637 4309 
Q 4106 3959 4291 3325 
L 3694 3184 
Q 3534 3684 3231 3912 
Q 2928 4141 2469 4141 
Q 1941 4141 1586 3887 
Q 1231 3634 1087 3207 
Q 944 2781 944 2328 
Q 944 1744 1114 1308 
Q 1284 872 1643 656 
Q 2003 441 2422 441 
Q 2931 441 3284 734 
Q 3638 1028 3763 1606 
z
" id="ArialMT-43" transform="scale(0.015625)"/>
       <path d="M 47 0 
L 1259 1725 
L 138 3319 
L 841 3319 
L 1350 2541 
Q 1494 2319 1581 2169 
Q 1719 2375 1834 2534 
L 2394 3319 
L 3066 3319 
L 1919 1756 
L 3153 0 
L 2463 0 
L 1781 1031 
L 1600 1309 
L 728 0 
L 47 0 
z
" id="ArialMT-78" transform="scale(0.015625)"/>
      </defs>
      <use xlink:href="#ArialMT-53"/>
      <use x="66.699219" xlink:href="#ArialMT-63"/>
      <use x="116.699219" xlink:href="#ArialMT-61"/>
      <use x="172.314453" xlink:href="#ArialMT-6e"/>
      <use x="227.929688" xlink:href="#ArialMT-43"/>
      <use x="300.146484" xlink:href="#ArialMT-6f"/>
      <use x="355.761719" xlink:href="#ArialMT-6e"/>
      <use x="411.376953" xlink:href="#ArialMT-74"/>
      <use x="439.160156" xlink:href="#ArialMT-65"/>
      <use x="494.775391" xlink:href="#ArialMT-78"/>
      <use x="544.775391" xlink:href="#ArialMT-74"/>
     </g>
    </g>
    <g id="line2d_43">
     <path d="M 187.6235 264.001375 
L 209.2235 264.001375 
" style="fill:none;stroke:#ffb5b8;stroke-dasharray:0.6,3,0.6,3,4,3;stroke-dashoffset:0;stroke-linecap:round;stroke-width:2;"/>
    </g>
    <g id="line2d_44"/>
    <g id="text_20">
     <!-- KidnappedRadar -->
     <g transform="translate(218.8235 268.201375)scale(0.12 -0.12)">
      <defs>
       <path d="M 469 0 
L 469 4581 
L 1075 4581 
L 1075 2309 
L 3350 4581 
L 4172 4581 
L 2250 2725 
L 4256 0 
L 3456 0 
L 1825 2319 
L 1075 1588 
L 1075 0 
L 469 0 
z
" id="ArialMT-4b" transform="scale(0.015625)"/>
       <path d="M 2575 0 
L 2575 419 
Q 2259 -75 1647 -75 
Q 1250 -75 917 144 
Q 584 363 401 755 
Q 219 1147 219 1656 
Q 219 2153 384 2558 
Q 550 2963 881 3178 
Q 1213 3394 1622 3394 
Q 1922 3394 2156 3267 
Q 2391 3141 2538 2938 
L 2538 4581 
L 3097 4581 
L 3097 0 
L 2575 0 
z
M 797 1656 
Q 797 1019 1065 703 
Q 1334 388 1700 388 
Q 2069 388 2326 689 
Q 2584 991 2584 1609 
Q 2584 2291 2321 2609 
Q 2059 2928 1675 2928 
Q 1300 2928 1048 2622 
Q 797 2316 797 1656 
z
" id="ArialMT-64" transform="scale(0.015625)"/>
       <path d="M 422 -1272 
L 422 3319 
L 934 3319 
L 934 2888 
Q 1116 3141 1344 3267 
Q 1572 3394 1897 3394 
Q 2322 3394 2647 3175 
Q 2972 2956 3137 2557 
Q 3303 2159 3303 1684 
Q 3303 1175 3120 767 
Q 2938 359 2589 142 
Q 2241 -75 1856 -75 
Q 1575 -75 1351 44 
Q 1128 163 984 344 
L 984 -1272 
L 422 -1272 
z
M 931 1641 
Q 931 1000 1190 694 
Q 1450 388 1819 388 
Q 2194 388 2461 705 
Q 2728 1022 2728 1688 
Q 2728 2322 2467 2637 
Q 2206 2953 1844 2953 
Q 1484 2953 1207 2617 
Q 931 2281 931 1641 
z
" id="ArialMT-70" transform="scale(0.015625)"/>
      </defs>
      <use xlink:href="#ArialMT-4b"/>
      <use x="66.699219" xlink:href="#ArialMT-69"/>
      <use x="88.916016" xlink:href="#ArialMT-64"/>
      <use x="144.53125" xlink:href="#ArialMT-6e"/>
      <use x="200.146484" xlink:href="#ArialMT-61"/>
      <use x="255.761719" xlink:href="#ArialMT-70"/>
      <use x="311.376953" xlink:href="#ArialMT-70"/>
      <use x="366.992188" xlink:href="#ArialMT-65"/>
      <use x="422.607422" xlink:href="#ArialMT-64"/>
      <use x="478.222656" xlink:href="#ArialMT-52"/>
      <use x="550.439453" xlink:href="#ArialMT-61"/>
      <use x="606.054688" xlink:href="#ArialMT-64"/>
      <use x="661.669922" xlink:href="#ArialMT-61"/>
      <use x="717.285156" xlink:href="#ArialMT-72"/>
     </g>
    </g>
    <g id="line2d_45">
     <path d="M 187.6235 280.97575 
L 209.2235 280.97575 
" style="fill:none;stroke:#e24a33;stroke-dasharray:0.6,3;stroke-dashoffset:0;stroke-linecap:round;stroke-width:2;"/>
    </g>
    <g id="line2d_46"/>
    <g id="text_21">
     <!-- UnderTheRadar -->
     <g transform="translate(218.8235 285.17575)scale(0.12 -0.12)">
      <defs>
       <path d="M 3500 4581 
L 4106 4581 
L 4106 1934 
Q 4106 1244 3950 837 
Q 3794 431 3386 176 
Q 2978 -78 2316 -78 
Q 1672 -78 1262 144 
Q 853 366 678 786 
Q 503 1206 503 1934 
L 503 4581 
L 1109 4581 
L 1109 1938 
Q 1109 1341 1220 1058 
Q 1331 775 1601 622 
Q 1872 469 2263 469 
Q 2931 469 3215 772 
Q 3500 1075 3500 1938 
L 3500 4581 
z
" id="ArialMT-55" transform="scale(0.015625)"/>
       <path d="M 1659 0 
L 1659 4041 
L 150 4041 
L 150 4581 
L 3781 4581 
L 3781 4041 
L 2266 4041 
L 2266 0 
L 1659 0 
z
" id="ArialMT-54" transform="scale(0.015625)"/>
       <path d="M 422 0 
L 422 4581 
L 984 4581 
L 984 2938 
Q 1378 3394 1978 3394 
Q 2347 3394 2619 3248 
Q 2891 3103 3008 2847 
Q 3125 2591 3125 2103 
L 3125 0 
L 2563 0 
L 2563 2103 
Q 2563 2525 2380 2717 
Q 2197 2909 1863 2909 
Q 1613 2909 1392 2779 
Q 1172 2650 1078 2428 
Q 984 2206 984 1816 
L 984 0 
L 422 0 
z
" id="ArialMT-68" transform="scale(0.015625)"/>
      </defs>
      <use xlink:href="#ArialMT-55"/>
      <use x="72.216797" xlink:href="#ArialMT-6e"/>
      <use x="127.832031" xlink:href="#ArialMT-64"/>
      <use x="183.447266" xlink:href="#ArialMT-65"/>
      <use x="239.0625" xlink:href="#ArialMT-72"/>
      <use x="272.363281" xlink:href="#ArialMT-54"/>
      <use x="333.447266" xlink:href="#ArialMT-68"/>
      <use x="389.0625" xlink:href="#ArialMT-65"/>
      <use x="444.677734" xlink:href="#ArialMT-52"/>
      <use x="516.894531" xlink:href="#ArialMT-61"/>
      <use x="572.509766" xlink:href="#ArialMT-64"/>
      <use x="628.125" xlink:href="#ArialMT-61"/>
      <use x="683.740234" xlink:href="#ArialMT-72"/>
     </g>
    </g>
   </g>
  </g>
 </g>
 <defs>
  <clipPath id="p9e89da2fc4">
   <rect height="286.414" width="286.414" x="48.386" y="13.293"/>
  </clipPath>
 </defs>
</svg>
