<?xml version="1.0" encoding="utf-8" standalone="no"?>
<!DOCTYPE svg PUBLIC "-//W3C//DTD SVG 1.1//EN"
  "http://www.w3.org/Graphics/SVG/1.1/DTD/svg11.dtd">
<svg height="288pt" version="1.1" viewBox="0 0 432 288" width="432pt" xmlns="http://www.w3.org/2000/svg" xmlns:xlink="http://www.w3.org/1999/xlink">
 <metadata>
  <rdf:RDF xmlns:cc="http://creativecommons.org/ns#" xmlns:dc="http://purl.org/dc/elements/1.1/" xmlns:rdf="http://www.w3.org/1999/02/22-rdf-syntax-ns#">
   <cc:Work>
    <dc:type rdf:resource="http://purl.org/dc/dcmitype/StillImage"/>
    <dc:date>2021-09-11T21:06:09.358241</dc:date>
    <dc:format>image/svg+xml</dc:format>
    <dc:creator>
     <cc:Agent>
      <dc:title>Matplotlib v3.4.2, https://matplotlib.org/</dc:title>
     </cc:Agent>
    </dc:creator>
   </cc:Work>
  </rdf:RDF>
 </metadata>
 <defs>
  <style type="text/css">*{stroke-linecap:butt;stroke-linejoin:round;}</style>
 </defs>
 <g id="figure_1">
  <g id="patch_1">
   <path d="M 0 288 
L 432 288 
L 432 0 
L 0 0 
z
" style="fill:#ffffff;"/>
  </g>
  <g id="axes_1">
   <g id="patch_2">
    <path d="M 45.92 183.87975 
L 388.17 183.87975 
L 388.17 10.8 
L 45.92 10.8 
z
" style="fill:#e5e5e5;"/>
   </g>
   <g id="matplotlib.axis_1">
    <g id="xtick_1">
     <g id="line2d_1">
      <path clip-path="url(#pcd708b3bf8)" d="M 61.476818 183.87975 
L 61.476818 10.8 
" style="fill:none;stroke:#ffffff;stroke-linecap:square;stroke-width:0.8;"/>
     </g>
     <g id="line2d_2">
      <defs>
       <path d="M 0 0 
L 0 3.5 
" id="m5422b6f51c" style="stroke:#555555;stroke-width:0.8;"/>
      </defs>
      <g>
       <use style="fill:#555555;stroke:#555555;stroke-width:0.8;" x="61.476818" xlink:href="#m5422b6f51c" y="183.87975"/>
      </g>
     </g>
     <g id="text_1">
      <!-- 1 -->
      <g style="fill:#555555;" transform="translate(58.140256 199.469125)scale(0.12 -0.12)">
       <defs>
        <path d="M 2384 0 
L 1822 0 
L 1822 3584 
Q 1619 3391 1289 3197 
Q 959 3003 697 2906 
L 697 3450 
Q 1169 3672 1522 3987 
Q 1875 4303 2022 4600 
L 2384 4600 
L 2384 0 
z
" id="ArialMT-31" transform="scale(0.015625)"/>
       </defs>
       <use xlink:href="#ArialMT-31"/>
      </g>
     </g>
    </g>
    <g id="xtick_2">
     <g id="line2d_3">
      <path clip-path="url(#pcd708b3bf8)" d="M 199.759646 183.87975 
L 199.759646 10.8 
" style="fill:none;stroke:#ffffff;stroke-linecap:square;stroke-width:0.8;"/>
     </g>
     <g id="line2d_4">
      <g>
       <use style="fill:#555555;stroke:#555555;stroke-width:0.8;" x="199.759646" xlink:href="#m5422b6f51c" y="183.87975"/>
      </g>
     </g>
     <g id="text_2">
      <!-- 5 -->
      <g style="fill:#555555;" transform="translate(196.423084 199.469125)scale(0.12 -0.12)">
       <defs>
        <path d="M 266 1200 
L 856 1250 
Q 922 819 1161 601 
Q 1400 384 1738 384 
Q 2144 384 2425 690 
Q 2706 997 2706 1503 
Q 2706 1984 2436 2262 
Q 2166 2541 1728 2541 
Q 1456 2541 1237 2417 
Q 1019 2294 894 2097 
L 366 2166 
L 809 4519 
L 3088 4519 
L 3088 3981 
L 1259 3981 
L 1013 2750 
Q 1425 3038 1878 3038 
Q 2478 3038 2890 2622 
Q 3303 2206 3303 1553 
Q 3303 931 2941 478 
Q 2500 -78 1738 -78 
Q 1113 -78 717 272 
Q 322 622 266 1200 
z
" id="ArialMT-35" transform="scale(0.015625)"/>
       </defs>
       <use xlink:href="#ArialMT-35"/>
      </g>
     </g>
    </g>
    <g id="xtick_3">
     <g id="line2d_5">
      <path clip-path="url(#pcd708b3bf8)" d="M 372.613182 183.87975 
L 372.613182 10.8 
" style="fill:none;stroke:#ffffff;stroke-linecap:square;stroke-width:0.8;"/>
     </g>
     <g id="line2d_6">
      <g>
       <use style="fill:#555555;stroke:#555555;stroke-width:0.8;" x="372.613182" xlink:href="#m5422b6f51c" y="183.87975"/>
      </g>
     </g>
     <g id="text_3">
      <!-- 10 -->
      <g style="fill:#555555;" transform="translate(365.940057 199.469125)scale(0.12 -0.12)">
       <defs>
        <path d="M 266 2259 
Q 266 3072 433 3567 
Q 600 4063 929 4331 
Q 1259 4600 1759 4600 
Q 2128 4600 2406 4451 
Q 2684 4303 2865 4023 
Q 3047 3744 3150 3342 
Q 3253 2941 3253 2259 
Q 3253 1453 3087 958 
Q 2922 463 2592 192 
Q 2263 -78 1759 -78 
Q 1097 -78 719 397 
Q 266 969 266 2259 
z
M 844 2259 
Q 844 1131 1108 757 
Q 1372 384 1759 384 
Q 2147 384 2411 759 
Q 2675 1134 2675 2259 
Q 2675 3391 2411 3762 
Q 2147 4134 1753 4134 
Q 1366 4134 1134 3806 
Q 844 3388 844 2259 
z
" id="ArialMT-30" transform="scale(0.015625)"/>
       </defs>
       <use xlink:href="#ArialMT-31"/>
       <use x="55.615234" xlink:href="#ArialMT-30"/>
      </g>
     </g>
    </g>
    <g id="text_4">
     <!-- N -->
     <g style="fill:#555555;" transform="translate(212.711875 214.4435)scale(0.12 -0.12)">
      <defs>
       <path d="M 488 0 
L 488 4581 
L 1109 4581 
L 3516 984 
L 3516 4581 
L 4097 4581 
L 4097 0 
L 3475 0 
L 1069 3600 
L 1069 0 
L 488 0 
z
" id="ArialMT-4e" transform="scale(0.015625)"/>
      </defs>
      <use xlink:href="#ArialMT-4e"/>
     </g>
    </g>
   </g>
   <g id="matplotlib.axis_2">
    <g id="ytick_1">
     <g id="line2d_7">
      <path clip-path="url(#pcd708b3bf8)" d="M 45.92 155.64813 
L 388.17 155.64813 
" style="fill:none;stroke:#ffffff;stroke-linecap:square;stroke-width:0.8;"/>
     </g>
     <g id="line2d_8">
      <defs>
       <path d="M 0 0 
L -3.5 0 
" id="m235a5c05db" style="stroke:#555555;stroke-width:0.8;"/>
      </defs>
      <g>
       <use style="fill:#555555;stroke:#555555;stroke-width:0.8;" x="45.92" xlink:href="#m235a5c05db" y="155.64813"/>
      </g>
     </g>
     <g id="text_5">
      <!-- 20 -->
      <g style="fill:#555555;" transform="translate(25.57375 159.942818)scale(0.12 -0.12)">
       <defs>
        <path d="M 3222 541 
L 3222 0 
L 194 0 
Q 188 203 259 391 
Q 375 700 629 1000 
Q 884 1300 1366 1694 
Q 2113 2306 2375 2664 
Q 2638 3022 2638 3341 
Q 2638 3675 2398 3904 
Q 2159 4134 1775 4134 
Q 1369 4134 1125 3890 
Q 881 3647 878 3216 
L 300 3275 
Q 359 3922 746 4261 
Q 1134 4600 1788 4600 
Q 2447 4600 2831 4234 
Q 3216 3869 3216 3328 
Q 3216 3053 3103 2787 
Q 2991 2522 2730 2228 
Q 2469 1934 1863 1422 
Q 1356 997 1212 845 
Q 1069 694 975 541 
L 3222 541 
z
" id="ArialMT-32" transform="scale(0.015625)"/>
       </defs>
       <use xlink:href="#ArialMT-32"/>
       <use x="55.615234" xlink:href="#ArialMT-30"/>
      </g>
     </g>
    </g>
    <g id="ytick_2">
     <g id="line2d_9">
      <path clip-path="url(#pcd708b3bf8)" d="M 45.92 113.028272 
L 388.17 113.028272 
" style="fill:none;stroke:#ffffff;stroke-linecap:square;stroke-width:0.8;"/>
     </g>
     <g id="line2d_10">
      <g>
       <use style="fill:#555555;stroke:#555555;stroke-width:0.8;" x="45.92" xlink:href="#m235a5c05db" y="113.028272"/>
      </g>
     </g>
     <g id="text_6">
      <!-- 40 -->
      <g style="fill:#555555;" transform="translate(25.57375 117.32296)scale(0.12 -0.12)">
       <defs>
        <path d="M 2069 0 
L 2069 1097 
L 81 1097 
L 81 1613 
L 2172 4581 
L 2631 4581 
L 2631 1613 
L 3250 1613 
L 3250 1097 
L 2631 1097 
L 2631 0 
L 2069 0 
z
M 2069 1613 
L 2069 3678 
L 634 1613 
L 2069 1613 
z
" id="ArialMT-34" transform="scale(0.015625)"/>
       </defs>
       <use xlink:href="#ArialMT-34"/>
       <use x="55.615234" xlink:href="#ArialMT-30"/>
      </g>
     </g>
    </g>
    <g id="ytick_3">
     <g id="line2d_11">
      <path clip-path="url(#pcd708b3bf8)" d="M 45.92 70.408415 
L 388.17 70.408415 
" style="fill:none;stroke:#ffffff;stroke-linecap:square;stroke-width:0.8;"/>
     </g>
     <g id="line2d_12">
      <g>
       <use style="fill:#555555;stroke:#555555;stroke-width:0.8;" x="45.92" xlink:href="#m235a5c05db" y="70.408415"/>
      </g>
     </g>
     <g id="text_7">
      <!-- 60 -->
      <g style="fill:#555555;" transform="translate(25.57375 74.703102)scale(0.12 -0.12)">
       <defs>
        <path d="M 3184 3459 
L 2625 3416 
Q 2550 3747 2413 3897 
Q 2184 4138 1850 4138 
Q 1581 4138 1378 3988 
Q 1113 3794 959 3422 
Q 806 3050 800 2363 
Q 1003 2672 1297 2822 
Q 1591 2972 1913 2972 
Q 2475 2972 2870 2558 
Q 3266 2144 3266 1488 
Q 3266 1056 3080 686 
Q 2894 316 2569 119 
Q 2244 -78 1831 -78 
Q 1128 -78 684 439 
Q 241 956 241 2144 
Q 241 3472 731 4075 
Q 1159 4600 1884 4600 
Q 2425 4600 2770 4297 
Q 3116 3994 3184 3459 
z
M 888 1484 
Q 888 1194 1011 928 
Q 1134 663 1356 523 
Q 1578 384 1822 384 
Q 2178 384 2434 671 
Q 2691 959 2691 1453 
Q 2691 1928 2437 2201 
Q 2184 2475 1800 2475 
Q 1419 2475 1153 2201 
Q 888 1928 888 1484 
z
" id="ArialMT-36" transform="scale(0.015625)"/>
       </defs>
       <use xlink:href="#ArialMT-36"/>
       <use x="55.615234" xlink:href="#ArialMT-30"/>
      </g>
     </g>
    </g>
    <g id="ytick_4">
     <g id="line2d_13">
      <path clip-path="url(#pcd708b3bf8)" d="M 45.92 27.788557 
L 388.17 27.788557 
" style="fill:none;stroke:#ffffff;stroke-linecap:square;stroke-width:0.8;"/>
     </g>
     <g id="line2d_14">
      <g>
       <use style="fill:#555555;stroke:#555555;stroke-width:0.8;" x="45.92" xlink:href="#m235a5c05db" y="27.788557"/>
      </g>
     </g>
     <g id="text_8">
      <!-- 80 -->
      <g style="fill:#555555;" transform="translate(25.57375 32.083244)scale(0.12 -0.12)">
       <defs>
        <path d="M 1131 2484 
Q 781 2613 612 2850 
Q 444 3088 444 3419 
Q 444 3919 803 4259 
Q 1163 4600 1759 4600 
Q 2359 4600 2725 4251 
Q 3091 3903 3091 3403 
Q 3091 3084 2923 2848 
Q 2756 2613 2416 2484 
Q 2838 2347 3058 2040 
Q 3278 1734 3278 1309 
Q 3278 722 2862 322 
Q 2447 -78 1769 -78 
Q 1091 -78 675 323 
Q 259 725 259 1325 
Q 259 1772 486 2073 
Q 713 2375 1131 2484 
z
M 1019 3438 
Q 1019 3113 1228 2906 
Q 1438 2700 1772 2700 
Q 2097 2700 2305 2904 
Q 2513 3109 2513 3406 
Q 2513 3716 2298 3927 
Q 2084 4138 1766 4138 
Q 1444 4138 1231 3931 
Q 1019 3725 1019 3438 
z
M 838 1322 
Q 838 1081 952 856 
Q 1066 631 1291 507 
Q 1516 384 1775 384 
Q 2178 384 2440 643 
Q 2703 903 2703 1303 
Q 2703 1709 2433 1975 
Q 2163 2241 1756 2241 
Q 1359 2241 1098 1978 
Q 838 1716 838 1322 
z
" id="ArialMT-38" transform="scale(0.015625)"/>
       </defs>
       <use xlink:href="#ArialMT-38"/>
       <use x="55.615234" xlink:href="#ArialMT-30"/>
      </g>
     </g>
    </g>
    <g id="text_9">
     <!-- Recall@N -->
     <g style="fill:#555555;" transform="translate(19.048125 124.436438)rotate(-90)scale(0.12 -0.12)">
      <defs>
       <path d="M 503 0 
L 503 4581 
L 2534 4581 
Q 3147 4581 3465 4457 
Q 3784 4334 3975 4021 
Q 4166 3709 4166 3331 
Q 4166 2844 3850 2509 
Q 3534 2175 2875 2084 
Q 3116 1969 3241 1856 
Q 3506 1613 3744 1247 
L 4541 0 
L 3778 0 
L 3172 953 
Q 2906 1366 2734 1584 
Q 2563 1803 2427 1890 
Q 2291 1978 2150 2013 
Q 2047 2034 1813 2034 
L 1109 2034 
L 1109 0 
L 503 0 
z
M 1109 2559 
L 2413 2559 
Q 2828 2559 3062 2645 
Q 3297 2731 3419 2920 
Q 3541 3109 3541 3331 
Q 3541 3656 3305 3865 
Q 3069 4075 2559 4075 
L 1109 4075 
L 1109 2559 
z
" id="ArialMT-52" transform="scale(0.015625)"/>
       <path d="M 2694 1069 
L 3275 997 
Q 3138 488 2766 206 
Q 2394 -75 1816 -75 
Q 1088 -75 661 373 
Q 234 822 234 1631 
Q 234 2469 665 2931 
Q 1097 3394 1784 3394 
Q 2450 3394 2872 2941 
Q 3294 2488 3294 1666 
Q 3294 1616 3291 1516 
L 816 1516 
Q 847 969 1125 678 
Q 1403 388 1819 388 
Q 2128 388 2347 550 
Q 2566 713 2694 1069 
z
M 847 1978 
L 2700 1978 
Q 2663 2397 2488 2606 
Q 2219 2931 1791 2931 
Q 1403 2931 1139 2672 
Q 875 2413 847 1978 
z
" id="ArialMT-65" transform="scale(0.015625)"/>
       <path d="M 2588 1216 
L 3141 1144 
Q 3050 572 2676 248 
Q 2303 -75 1759 -75 
Q 1078 -75 664 370 
Q 250 816 250 1647 
Q 250 2184 428 2587 
Q 606 2991 970 3192 
Q 1334 3394 1763 3394 
Q 2303 3394 2647 3120 
Q 2991 2847 3088 2344 
L 2541 2259 
Q 2463 2594 2264 2762 
Q 2066 2931 1784 2931 
Q 1359 2931 1093 2626 
Q 828 2322 828 1663 
Q 828 994 1084 691 
Q 1341 388 1753 388 
Q 2084 388 2306 591 
Q 2528 794 2588 1216 
z
" id="ArialMT-63" transform="scale(0.015625)"/>
       <path d="M 2588 409 
Q 2275 144 1986 34 
Q 1697 -75 1366 -75 
Q 819 -75 525 192 
Q 231 459 231 875 
Q 231 1119 342 1320 
Q 453 1522 633 1644 
Q 813 1766 1038 1828 
Q 1203 1872 1538 1913 
Q 2219 1994 2541 2106 
Q 2544 2222 2544 2253 
Q 2544 2597 2384 2738 
Q 2169 2928 1744 2928 
Q 1347 2928 1158 2789 
Q 969 2650 878 2297 
L 328 2372 
Q 403 2725 575 2942 
Q 747 3159 1072 3276 
Q 1397 3394 1825 3394 
Q 2250 3394 2515 3294 
Q 2781 3194 2906 3042 
Q 3031 2891 3081 2659 
Q 3109 2516 3109 2141 
L 3109 1391 
Q 3109 606 3145 398 
Q 3181 191 3288 0 
L 2700 0 
Q 2613 175 2588 409 
z
M 2541 1666 
Q 2234 1541 1622 1453 
Q 1275 1403 1131 1340 
Q 988 1278 909 1158 
Q 831 1038 831 891 
Q 831 666 1001 516 
Q 1172 366 1500 366 
Q 1825 366 2078 508 
Q 2331 650 2450 897 
Q 2541 1088 2541 1459 
L 2541 1666 
z
" id="ArialMT-61" transform="scale(0.015625)"/>
       <path d="M 409 0 
L 409 4581 
L 972 4581 
L 972 0 
L 409 0 
z
" id="ArialMT-6c" transform="scale(0.015625)"/>
       <path d="M 3628 509 
Q 3425 275 3173 133 
Q 2922 -9 2669 -9 
Q 2391 -9 2128 153 
Q 1866 316 1702 653 
Q 1538 991 1538 1394 
Q 1538 1891 1792 2389 
Q 2047 2888 2425 3138 
Q 2803 3388 3159 3388 
Q 3431 3388 3678 3245 
Q 3925 3103 4103 2813 
L 4209 3297 
L 4769 3297 
L 4319 1200 
Q 4225 763 4225 716 
Q 4225 631 4289 570 
Q 4353 509 4444 509 
Q 4609 509 4878 700 
Q 5234 950 5442 1370 
Q 5650 1791 5650 2238 
Q 5650 2759 5383 3212 
Q 5116 3666 4586 3937 
Q 4056 4209 3416 4209 
Q 2684 4209 2079 3867 
Q 1475 3525 1142 2886 
Q 809 2247 809 1516 
Q 809 750 1142 197 
Q 1475 -356 2104 -620 
Q 2734 -884 3500 -884 
Q 4319 -884 4872 -609 
Q 5425 -334 5700 59 
L 6266 59 
Q 6106 -269 5718 -609 
Q 5331 -950 4797 -1148 
Q 4263 -1347 3509 -1347 
Q 2816 -1347 2230 -1169 
Q 1644 -991 1231 -633 
Q 819 -275 609 191 
Q 347 781 347 1466 
Q 347 2228 659 2919 
Q 1041 3766 1742 4216 
Q 2444 4666 3444 4666 
Q 4219 4666 4836 4348 
Q 5453 4031 5809 3403 
Q 6113 2863 6113 2228 
Q 6113 1322 5475 619 
Q 4906 -13 4231 -13 
Q 4016 -13 3883 53 
Q 3750 119 3688 241 
Q 3647 319 3628 509 
z
M 2116 1356 
Q 2116 928 2319 690 
Q 2522 453 2784 453 
Q 2959 453 3153 558 
Q 3347 663 3523 869 
Q 3700 1075 3812 1392 
Q 3925 1709 3925 2028 
Q 3925 2453 3714 2687 
Q 3503 2922 3200 2922 
Q 3000 2922 2823 2820 
Q 2647 2719 2481 2494 
Q 2316 2269 2216 1947 
Q 2116 1625 2116 1356 
z
" id="ArialMT-40" transform="scale(0.015625)"/>
      </defs>
      <use xlink:href="#ArialMT-52"/>
      <use x="72.216797" xlink:href="#ArialMT-65"/>
      <use x="127.832031" xlink:href="#ArialMT-63"/>
      <use x="177.832031" xlink:href="#ArialMT-61"/>
      <use x="233.447266" xlink:href="#ArialMT-6c"/>
      <use x="255.664062" xlink:href="#ArialMT-6c"/>
      <use x="277.880859" xlink:href="#ArialMT-40"/>
      <use x="379.394531" xlink:href="#ArialMT-4e"/>
     </g>
    </g>
   </g>
   <g id="line2d_15">
    <path clip-path="url(#pcd708b3bf8)" d="M 61.476818 30.198608 
L 199.759646 21.204158 
L 372.613182 18.667261 
" style="fill:none;stroke:#e24a33;stroke-linecap:square;stroke-width:1.5;"/>
    <defs>
     <path d="M 0 2.5 
C 0.663008 2.5 1.29895 2.236584 1.767767 1.767767 
C 2.236584 1.29895 2.5 0.663008 2.5 0 
C 2.5 -0.663008 2.236584 -1.29895 1.767767 -1.767767 
C 1.29895 -2.236584 0.663008 -2.5 0 -2.5 
C -0.663008 -2.5 -1.29895 -2.236584 -1.767767 -1.767767 
C -2.236584 -1.29895 -2.5 -0.663008 -2.5 0 
C -2.5 0.663008 -2.236584 1.29895 -1.767767 1.767767 
C -1.29895 2.236584 -0.663008 2.5 0 2.5 
z
" id="mcdc8079735" style="stroke:#e24a33;"/>
    </defs>
    <g clip-path="url(#pcd708b3bf8)">
     <use style="fill:#e24a33;stroke:#e24a33;" x="61.476818" xlink:href="#mcdc8079735" y="30.198608"/>
     <use style="fill:#e24a33;stroke:#e24a33;" x="199.759646" xlink:href="#mcdc8079735" y="21.204158"/>
     <use style="fill:#e24a33;stroke:#e24a33;" x="372.613182" xlink:href="#mcdc8079735" y="18.667261"/>
    </g>
   </g>
   <g id="line2d_16">
    <path clip-path="url(#pcd708b3bf8)" d="M 61.476818 42.479493 
L 199.759646 26.796861 
L 372.613182 22.645576 
" style="fill:none;stroke:#348abd;stroke-dasharray:1.5,2.25,1.5,2.25;stroke-dashoffset:0;stroke-width:1.5;"/>
    <defs>
     <path d="M 0 -2.5 
L -2.377641 -0.772542 
L -1.469463 2.022542 
L 1.469463 2.022542 
L 2.377641 -0.772542 
z
" id="m370892aa2f" style="stroke:#348abd;stroke-linejoin:miter;"/>
    </defs>
    <g clip-path="url(#pcd708b3bf8)">
     <use style="fill:#348abd;stroke:#348abd;stroke-linejoin:miter;" x="61.476818" xlink:href="#m370892aa2f" y="42.479493"/>
     <use style="fill:#348abd;stroke:#348abd;stroke-linejoin:miter;" x="199.759646" xlink:href="#m370892aa2f" y="26.796861"/>
     <use style="fill:#348abd;stroke:#348abd;stroke-linejoin:miter;" x="372.613182" xlink:href="#m370892aa2f" y="22.645576"/>
    </g>
   </g>
   <g id="line2d_17">
    <path clip-path="url(#pcd708b3bf8)" d="M 61.476818 42.133552 
L 199.759646 27.777025 
L 372.613182 23.395114 
" style="fill:none;stroke:#988ed5;stroke-dasharray:1.5,4.5,1.5,4.5;stroke-dashoffset:0;stroke-width:1.5;"/>
    <defs>
     <path d="M -2.5 2.5 
L 2.5 2.5 
L 2.5 -2.5 
L -2.5 -2.5 
z
" id="m87120ee253" style="stroke:#988ed5;stroke-linejoin:miter;"/>
    </defs>
    <g clip-path="url(#pcd708b3bf8)">
     <use style="fill:#988ed5;stroke:#988ed5;stroke-linejoin:miter;" x="61.476818" xlink:href="#m87120ee253" y="42.133552"/>
     <use style="fill:#988ed5;stroke:#988ed5;stroke-linejoin:miter;" x="199.759646" xlink:href="#m87120ee253" y="27.777025"/>
     <use style="fill:#988ed5;stroke:#988ed5;stroke-linejoin:miter;" x="372.613182" xlink:href="#m87120ee253" y="23.395114"/>
    </g>
   </g>
   <g id="line2d_18">
    <path clip-path="url(#pcd708b3bf8)" d="M 61.476818 130.406012 
L 199.759646 83.992341 
L 372.613182 67.963769 
" style="fill:none;stroke:#777777;stroke-dasharray:4.5,4.5;stroke-dashoffset:0;stroke-width:1.5;"/>
    <defs>
     <path d="M 0 -2.5 
L -2.5 2.5 
L 2.5 2.5 
z
" id="m2c306f8c3f" style="stroke:#777777;stroke-linejoin:miter;"/>
    </defs>
    <g clip-path="url(#pcd708b3bf8)">
     <use style="fill:#777777;stroke:#777777;stroke-linejoin:miter;" x="61.476818" xlink:href="#m2c306f8c3f" y="130.406012"/>
     <use style="fill:#777777;stroke:#777777;stroke-linejoin:miter;" x="199.759646" xlink:href="#m2c306f8c3f" y="83.992341"/>
     <use style="fill:#777777;stroke:#777777;stroke-linejoin:miter;" x="372.613182" xlink:href="#m2c306f8c3f" y="67.963769"/>
    </g>
   </g>
   <g id="line2d_19">
    <path clip-path="url(#pcd708b3bf8)" d="M 61.476818 133.750103 
L 199.759646 105.72893 
L 372.613182 95.062434 
" style="fill:none;stroke:#fbc15e;stroke-dasharray:3,2.25,0.45,2.25;stroke-dashoffset:0;stroke-width:1.5;"/>
    <defs>
     <path d="M 0 2.5 
C 0.663008 2.5 1.29895 2.236584 1.767767 1.767767 
C 2.236584 1.29895 2.5 0.663008 2.5 0 
C 2.5 -0.663008 2.236584 -1.29895 1.767767 -1.767767 
C 1.29895 -2.236584 0.663008 -2.5 0 -2.5 
C -0.663008 -2.5 -1.29895 -2.236584 -1.767767 -1.767767 
C -2.236584 -1.29895 -2.5 -0.663008 -2.5 0 
C -2.5 0.663008 -2.236584 1.29895 -1.767767 1.767767 
C -1.29895 2.236584 -0.663008 2.5 0 2.5 
z
" id="m9ff9929c0f" style="stroke:#fbc15e;"/>
    </defs>
    <g clip-path="url(#pcd708b3bf8)">
     <use style="fill:#fbc15e;stroke:#fbc15e;" x="61.476818" xlink:href="#m9ff9929c0f" y="133.750103"/>
     <use style="fill:#fbc15e;stroke:#fbc15e;" x="199.759646" xlink:href="#m9ff9929c0f" y="105.72893"/>
     <use style="fill:#fbc15e;stroke:#fbc15e;" x="372.613182" xlink:href="#m9ff9929c0f" y="95.062434"/>
    </g>
   </g>
   <g id="line2d_20">
    <path clip-path="url(#pcd708b3bf8)" d="M 61.476818 176.012489 
L 199.759646 165.74959 
L 372.613182 161.655962 
" style="fill:none;stroke:#8eba42;stroke-dasharray:3,2.25,3,2.25,0.45,2.25;stroke-dashoffset:0;stroke-width:1.5;"/>
    <defs>
     <path d="M 0 -2.5 
L -2.377641 -0.772542 
L -1.469463 2.022542 
L 1.469463 2.022542 
L 2.377641 -0.772542 
z
" id="me6ce0f321e" style="stroke:#8eba42;stroke-linejoin:miter;"/>
    </defs>
    <g clip-path="url(#pcd708b3bf8)">
     <use style="fill:#8eba42;stroke:#8eba42;stroke-linejoin:miter;" x="61.476818" xlink:href="#me6ce0f321e" y="176.012489"/>
     <use style="fill:#8eba42;stroke:#8eba42;stroke-linejoin:miter;" x="199.759646" xlink:href="#me6ce0f321e" y="165.74959"/>
     <use style="fill:#8eba42;stroke:#8eba42;stroke-linejoin:miter;" x="372.613182" xlink:href="#me6ce0f321e" y="161.655962"/>
    </g>
   </g>
   <g id="line2d_21">
    <path clip-path="url(#pcd708b3bf8)" d="M 61.476818 110.860379 
L 199.759646 77.707757 
L 372.613182 67.156575 
" style="fill:none;stroke:#ffb5b8;stroke-dasharray:0.45,2.25,0.45,2.25,3,2.25;stroke-dashoffset:0;stroke-width:1.5;"/>
    <defs>
     <path d="M -2.5 2.5 
L 2.5 2.5 
L 2.5 -2.5 
L -2.5 -2.5 
z
" id="m93a9478416" style="stroke:#ffb5b8;stroke-linejoin:miter;"/>
    </defs>
    <g clip-path="url(#pcd708b3bf8)">
     <use style="fill:#ffb5b8;stroke:#ffb5b8;stroke-linejoin:miter;" x="61.476818" xlink:href="#m93a9478416" y="110.860379"/>
     <use style="fill:#ffb5b8;stroke:#ffb5b8;stroke-linejoin:miter;" x="199.759646" xlink:href="#m93a9478416" y="77.707757"/>
     <use style="fill:#ffb5b8;stroke:#ffb5b8;stroke-linejoin:miter;" x="372.613182" xlink:href="#m93a9478416" y="67.156575"/>
    </g>
   </g>
   <g id="line2d_22">
    <path clip-path="url(#pcd708b3bf8)" d="M 61.476818 116.280112 
L 199.759646 83.704057 
L 372.613182 72.230367 
" style="fill:none;stroke:#e24a33;stroke-dasharray:0.45,2.25;stroke-dashoffset:0;stroke-width:1.5;"/>
    <defs>
     <path d="M 0 -2.5 
L -2.5 2.5 
L 2.5 2.5 
z
" id="ma509efb9fb" style="stroke:#e24a33;stroke-linejoin:miter;"/>
    </defs>
    <g clip-path="url(#pcd708b3bf8)">
     <use style="fill:#e24a33;stroke:#e24a33;stroke-linejoin:miter;" x="61.476818" xlink:href="#ma509efb9fb" y="116.280112"/>
     <use style="fill:#e24a33;stroke:#e24a33;stroke-linejoin:miter;" x="199.759646" xlink:href="#ma509efb9fb" y="83.704057"/>
     <use style="fill:#e24a33;stroke:#e24a33;stroke-linejoin:miter;" x="372.613182" xlink:href="#ma509efb9fb" y="72.230367"/>
    </g>
   </g>
   <g id="patch_3">
    <path d="M 45.92 183.87975 
L 45.92 10.8 
" style="fill:none;stroke:#ffffff;stroke-linecap:square;stroke-linejoin:miter;"/>
   </g>
   <g id="patch_4">
    <path d="M 388.17 183.87975 
L 388.17 10.8 
" style="fill:none;stroke:#ffffff;stroke-linecap:square;stroke-linejoin:miter;"/>
   </g>
   <g id="patch_5">
    <path d="M 45.92 183.87975 
L 388.17 183.87975 
" style="fill:none;stroke:#ffffff;stroke-linecap:square;stroke-linejoin:miter;"/>
   </g>
   <g id="patch_6">
    <path d="M 45.92 10.8 
L 388.17 10.8 
" style="fill:none;stroke:#ffffff;stroke-linecap:square;stroke-linejoin:miter;"/>
   </g>
   <g id="legend_1">
    <g id="patch_7">
     <path d="M 18.8425 270.511088 
L 415.2475 270.511088 
Q 417.6475 270.511088 417.6475 268.111087 
L 417.6475 218.241713 
Q 417.6475 215.841712 415.2475 215.841712 
L 18.8425 215.841712 
Q 16.4425 215.841712 16.4425 218.241713 
L 16.4425 268.111087 
Q 16.4425 270.511088 18.8425 270.511088 
z
" style="fill:#e5e5e5;opacity:0.8;stroke:#cccccc;stroke-linejoin:miter;stroke-width:0.5;"/>
    </g>
    <g id="line2d_23">
     <path d="M 21.2425 225.031088 
L 45.2425 225.031088 
" style="fill:none;stroke:#e24a33;stroke-linecap:square;stroke-width:1.5;"/>
    </g>
    <g id="line2d_24">
     <g>
      <use style="fill:#e24a33;stroke:#e24a33;" x="33.2425" xlink:href="#mcdc8079735" y="225.031088"/>
     </g>
    </g>
    <g id="text_10">
     <!-- Ours:AutoPlace -->
     <g transform="translate(54.8425 229.231088)scale(0.12 -0.12)">
      <defs>
       <path d="M 309 2231 
Q 309 3372 921 4017 
Q 1534 4663 2503 4663 
Q 3138 4663 3647 4359 
Q 4156 4056 4423 3514 
Q 4691 2972 4691 2284 
Q 4691 1588 4409 1038 
Q 4128 488 3612 205 
Q 3097 -78 2500 -78 
Q 1853 -78 1343 234 
Q 834 547 571 1087 
Q 309 1628 309 2231 
z
M 934 2222 
Q 934 1394 1379 917 
Q 1825 441 2497 441 
Q 3181 441 3623 922 
Q 4066 1403 4066 2288 
Q 4066 2847 3877 3264 
Q 3688 3681 3323 3911 
Q 2959 4141 2506 4141 
Q 1863 4141 1398 3698 
Q 934 3256 934 2222 
z
" id="ArialMT-4f" transform="scale(0.015625)"/>
       <path d="M 2597 0 
L 2597 488 
Q 2209 -75 1544 -75 
Q 1250 -75 995 37 
Q 741 150 617 320 
Q 494 491 444 738 
Q 409 903 409 1263 
L 409 3319 
L 972 3319 
L 972 1478 
Q 972 1038 1006 884 
Q 1059 663 1231 536 
Q 1403 409 1656 409 
Q 1909 409 2131 539 
Q 2353 669 2445 892 
Q 2538 1116 2538 1541 
L 2538 3319 
L 3100 3319 
L 3100 0 
L 2597 0 
z
" id="ArialMT-75" transform="scale(0.015625)"/>
       <path d="M 416 0 
L 416 3319 
L 922 3319 
L 922 2816 
Q 1116 3169 1280 3281 
Q 1444 3394 1641 3394 
Q 1925 3394 2219 3213 
L 2025 2691 
Q 1819 2813 1613 2813 
Q 1428 2813 1281 2702 
Q 1134 2591 1072 2394 
Q 978 2094 978 1738 
L 978 0 
L 416 0 
z
" id="ArialMT-72" transform="scale(0.015625)"/>
       <path d="M 197 991 
L 753 1078 
Q 800 744 1014 566 
Q 1228 388 1613 388 
Q 2000 388 2187 545 
Q 2375 703 2375 916 
Q 2375 1106 2209 1216 
Q 2094 1291 1634 1406 
Q 1016 1563 777 1677 
Q 538 1791 414 1992 
Q 291 2194 291 2438 
Q 291 2659 392 2848 
Q 494 3038 669 3163 
Q 800 3259 1026 3326 
Q 1253 3394 1513 3394 
Q 1903 3394 2198 3281 
Q 2494 3169 2634 2976 
Q 2775 2784 2828 2463 
L 2278 2388 
Q 2241 2644 2061 2787 
Q 1881 2931 1553 2931 
Q 1166 2931 1000 2803 
Q 834 2675 834 2503 
Q 834 2394 903 2306 
Q 972 2216 1119 2156 
Q 1203 2125 1616 2013 
Q 2213 1853 2448 1751 
Q 2684 1650 2818 1456 
Q 2953 1263 2953 975 
Q 2953 694 2789 445 
Q 2625 197 2315 61 
Q 2006 -75 1616 -75 
Q 969 -75 630 194 
Q 291 463 197 991 
z
" id="ArialMT-73" transform="scale(0.015625)"/>
       <path d="M 578 2678 
L 578 3319 
L 1219 3319 
L 1219 2678 
L 578 2678 
z
M 578 0 
L 578 641 
L 1219 641 
L 1219 0 
L 578 0 
z
" id="ArialMT-3a" transform="scale(0.015625)"/>
       <path d="M -9 0 
L 1750 4581 
L 2403 4581 
L 4278 0 
L 3588 0 
L 3053 1388 
L 1138 1388 
L 634 0 
L -9 0 
z
M 1313 1881 
L 2866 1881 
L 2388 3150 
Q 2169 3728 2063 4100 
Q 1975 3659 1816 3225 
L 1313 1881 
z
" id="ArialMT-41" transform="scale(0.015625)"/>
       <path d="M 1650 503 
L 1731 6 
Q 1494 -44 1306 -44 
Q 1000 -44 831 53 
Q 663 150 594 308 
Q 525 466 525 972 
L 525 2881 
L 113 2881 
L 113 3319 
L 525 3319 
L 525 4141 
L 1084 4478 
L 1084 3319 
L 1650 3319 
L 1650 2881 
L 1084 2881 
L 1084 941 
Q 1084 700 1114 631 
Q 1144 563 1211 522 
Q 1278 481 1403 481 
Q 1497 481 1650 503 
z
" id="ArialMT-74" transform="scale(0.015625)"/>
       <path d="M 213 1659 
Q 213 2581 725 3025 
Q 1153 3394 1769 3394 
Q 2453 3394 2887 2945 
Q 3322 2497 3322 1706 
Q 3322 1066 3130 698 
Q 2938 331 2570 128 
Q 2203 -75 1769 -75 
Q 1072 -75 642 372 
Q 213 819 213 1659 
z
M 791 1659 
Q 791 1022 1069 705 
Q 1347 388 1769 388 
Q 2188 388 2466 706 
Q 2744 1025 2744 1678 
Q 2744 2294 2464 2611 
Q 2184 2928 1769 2928 
Q 1347 2928 1069 2612 
Q 791 2297 791 1659 
z
" id="ArialMT-6f" transform="scale(0.015625)"/>
       <path d="M 494 0 
L 494 4581 
L 2222 4581 
Q 2678 4581 2919 4538 
Q 3256 4481 3484 4323 
Q 3713 4166 3852 3881 
Q 3991 3597 3991 3256 
Q 3991 2672 3619 2267 
Q 3247 1863 2275 1863 
L 1100 1863 
L 1100 0 
L 494 0 
z
M 1100 2403 
L 2284 2403 
Q 2872 2403 3119 2622 
Q 3366 2841 3366 3238 
Q 3366 3525 3220 3729 
Q 3075 3934 2838 4000 
Q 2684 4041 2272 4041 
L 1100 4041 
L 1100 2403 
z
" id="ArialMT-50" transform="scale(0.015625)"/>
      </defs>
      <use xlink:href="#ArialMT-4f"/>
      <use x="77.783203" xlink:href="#ArialMT-75"/>
      <use x="133.398438" xlink:href="#ArialMT-72"/>
      <use x="166.699219" xlink:href="#ArialMT-73"/>
      <use x="216.699219" xlink:href="#ArialMT-3a"/>
      <use x="244.482422" xlink:href="#ArialMT-41"/>
      <use x="311.181641" xlink:href="#ArialMT-75"/>
      <use x="366.796875" xlink:href="#ArialMT-74"/>
      <use x="394.580078" xlink:href="#ArialMT-6f"/>
      <use x="450.195312" xlink:href="#ArialMT-50"/>
      <use x="516.894531" xlink:href="#ArialMT-6c"/>
      <use x="539.111328" xlink:href="#ArialMT-61"/>
      <use x="594.726562" xlink:href="#ArialMT-63"/>
      <use x="644.726562" xlink:href="#ArialMT-65"/>
     </g>
    </g>
    <g id="line2d_25">
     <path d="M 21.2425 242.005463 
L 45.2425 242.005463 
" style="fill:none;stroke:#348abd;stroke-dasharray:1.5,2.25,1.5,2.25;stroke-dashoffset:0;stroke-width:1.5;"/>
    </g>
    <g id="line2d_26">
     <g>
      <use style="fill:#348abd;stroke:#348abd;stroke-linejoin:miter;" x="33.2425" xlink:href="#m370892aa2f" y="242.005463"/>
     </g>
    </g>
    <g id="text_11">
     <!-- NetVLAD -->
     <g transform="translate(54.8425 246.205463)scale(0.12 -0.12)">
      <defs>
       <path d="M 1803 0 
L 28 4581 
L 684 4581 
L 1875 1253 
Q 2019 853 2116 503 
Q 2222 878 2363 1253 
L 3600 4581 
L 4219 4581 
L 2425 0 
L 1803 0 
z
" id="ArialMT-56" transform="scale(0.015625)"/>
       <path d="M 469 0 
L 469 4581 
L 1075 4581 
L 1075 541 
L 3331 541 
L 3331 0 
L 469 0 
z
" id="ArialMT-4c" transform="scale(0.015625)"/>
       <path d="M 494 0 
L 494 4581 
L 2072 4581 
Q 2606 4581 2888 4516 
Q 3281 4425 3559 4188 
Q 3922 3881 4101 3404 
Q 4281 2928 4281 2316 
Q 4281 1794 4159 1391 
Q 4038 988 3847 723 
Q 3656 459 3429 307 
Q 3203 156 2883 78 
Q 2563 0 2147 0 
L 494 0 
z
M 1100 541 
L 2078 541 
Q 2531 541 2789 625 
Q 3047 709 3200 863 
Q 3416 1078 3536 1442 
Q 3656 1806 3656 2325 
Q 3656 3044 3420 3430 
Q 3184 3816 2847 3947 
Q 2603 4041 2063 4041 
L 1100 4041 
L 1100 541 
z
" id="ArialMT-44" transform="scale(0.015625)"/>
      </defs>
      <use xlink:href="#ArialMT-4e"/>
      <use x="72.216797" xlink:href="#ArialMT-65"/>
      <use x="127.832031" xlink:href="#ArialMT-74"/>
      <use x="155.615234" xlink:href="#ArialMT-56"/>
      <use x="222.314453" xlink:href="#ArialMT-4c"/>
      <use x="277.929688" xlink:href="#ArialMT-41"/>
      <use x="344.628906" xlink:href="#ArialMT-44"/>
     </g>
    </g>
    <g id="line2d_27">
     <path d="M 21.2425 259.126087 
L 45.2425 259.126087 
" style="fill:none;stroke:#988ed5;stroke-dasharray:1.5,4.5,1.5,4.5;stroke-dashoffset:0;stroke-width:1.5;"/>
    </g>
    <g id="line2d_28">
     <g>
      <use style="fill:#988ed5;stroke:#988ed5;stroke-linejoin:miter;" x="33.2425" xlink:href="#m87120ee253" y="259.126087"/>
     </g>
    </g>
    <g id="text_12">
     <!-- SeqNet -->
     <g transform="translate(54.8425 263.326087)scale(0.12 -0.12)">
      <defs>
       <path d="M 288 1472 
L 859 1522 
Q 900 1178 1048 958 
Q 1197 738 1509 602 
Q 1822 466 2213 466 
Q 2559 466 2825 569 
Q 3091 672 3220 851 
Q 3350 1031 3350 1244 
Q 3350 1459 3225 1620 
Q 3100 1781 2813 1891 
Q 2628 1963 1997 2114 
Q 1366 2266 1113 2400 
Q 784 2572 623 2826 
Q 463 3081 463 3397 
Q 463 3744 659 4045 
Q 856 4347 1234 4503 
Q 1613 4659 2075 4659 
Q 2584 4659 2973 4495 
Q 3363 4331 3572 4012 
Q 3781 3694 3797 3291 
L 3216 3247 
Q 3169 3681 2898 3903 
Q 2628 4125 2100 4125 
Q 1550 4125 1298 3923 
Q 1047 3722 1047 3438 
Q 1047 3191 1225 3031 
Q 1400 2872 2139 2705 
Q 2878 2538 3153 2413 
Q 3553 2228 3743 1945 
Q 3934 1663 3934 1294 
Q 3934 928 3725 604 
Q 3516 281 3123 101 
Q 2731 -78 2241 -78 
Q 1619 -78 1198 103 
Q 778 284 539 648 
Q 300 1013 288 1472 
z
" id="ArialMT-53" transform="scale(0.015625)"/>
       <path d="M 2538 -1272 
L 2538 353 
Q 2406 169 2170 47 
Q 1934 -75 1669 -75 
Q 1078 -75 651 397 
Q 225 869 225 1691 
Q 225 2191 398 2587 
Q 572 2984 901 3189 
Q 1231 3394 1625 3394 
Q 2241 3394 2594 2875 
L 2594 3319 
L 3100 3319 
L 3100 -1272 
L 2538 -1272 
z
M 803 1669 
Q 803 1028 1072 708 
Q 1341 388 1716 388 
Q 2075 388 2334 692 
Q 2594 997 2594 1619 
Q 2594 2281 2320 2615 
Q 2047 2950 1678 2950 
Q 1313 2950 1058 2639 
Q 803 2328 803 1669 
z
" id="ArialMT-71" transform="scale(0.015625)"/>
      </defs>
      <use xlink:href="#ArialMT-53"/>
      <use x="66.699219" xlink:href="#ArialMT-65"/>
      <use x="122.314453" xlink:href="#ArialMT-71"/>
      <use x="177.929688" xlink:href="#ArialMT-4e"/>
      <use x="250.146484" xlink:href="#ArialMT-65"/>
      <use x="305.761719" xlink:href="#ArialMT-74"/>
     </g>
    </g>
    <g id="line2d_29">
     <path d="M 162.88 225.031088 
L 186.88 225.031088 
" style="fill:none;stroke:#777777;stroke-dasharray:4.5,4.5;stroke-dashoffset:0;stroke-width:1.5;"/>
    </g>
    <g id="line2d_30">
     <g>
      <use style="fill:#777777;stroke:#777777;stroke-linejoin:miter;" x="174.88" xlink:href="#m2c306f8c3f" y="225.031088"/>
     </g>
    </g>
    <g id="text_13">
     <!-- MinkLoc3D -->
     <g transform="translate(196.48 229.231088)scale(0.12 -0.12)">
      <defs>
       <path d="M 475 0 
L 475 4581 
L 1388 4581 
L 2472 1338 
Q 2622 884 2691 659 
Q 2769 909 2934 1394 
L 4031 4581 
L 4847 4581 
L 4847 0 
L 4263 0 
L 4263 3834 
L 2931 0 
L 2384 0 
L 1059 3900 
L 1059 0 
L 475 0 
z
" id="ArialMT-4d" transform="scale(0.015625)"/>
       <path d="M 425 3934 
L 425 4581 
L 988 4581 
L 988 3934 
L 425 3934 
z
M 425 0 
L 425 3319 
L 988 3319 
L 988 0 
L 425 0 
z
" id="ArialMT-69" transform="scale(0.015625)"/>
       <path d="M 422 0 
L 422 3319 
L 928 3319 
L 928 2847 
Q 1294 3394 1984 3394 
Q 2284 3394 2536 3286 
Q 2788 3178 2913 3003 
Q 3038 2828 3088 2588 
Q 3119 2431 3119 2041 
L 3119 0 
L 2556 0 
L 2556 2019 
Q 2556 2363 2490 2533 
Q 2425 2703 2258 2804 
Q 2091 2906 1866 2906 
Q 1506 2906 1245 2678 
Q 984 2450 984 1813 
L 984 0 
L 422 0 
z
" id="ArialMT-6e" transform="scale(0.015625)"/>
       <path d="M 425 0 
L 425 4581 
L 988 4581 
L 988 1969 
L 2319 3319 
L 3047 3319 
L 1778 2088 
L 3175 0 
L 2481 0 
L 1384 1697 
L 988 1316 
L 988 0 
L 425 0 
z
" id="ArialMT-6b" transform="scale(0.015625)"/>
       <path d="M 269 1209 
L 831 1284 
Q 928 806 1161 595 
Q 1394 384 1728 384 
Q 2125 384 2398 659 
Q 2672 934 2672 1341 
Q 2672 1728 2419 1979 
Q 2166 2231 1775 2231 
Q 1616 2231 1378 2169 
L 1441 2663 
Q 1497 2656 1531 2656 
Q 1891 2656 2178 2843 
Q 2466 3031 2466 3422 
Q 2466 3731 2256 3934 
Q 2047 4138 1716 4138 
Q 1388 4138 1169 3931 
Q 950 3725 888 3313 
L 325 3413 
Q 428 3978 793 4289 
Q 1159 4600 1703 4600 
Q 2078 4600 2393 4439 
Q 2709 4278 2876 4000 
Q 3044 3722 3044 3409 
Q 3044 3113 2884 2869 
Q 2725 2625 2413 2481 
Q 2819 2388 3044 2092 
Q 3269 1797 3269 1353 
Q 3269 753 2831 336 
Q 2394 -81 1725 -81 
Q 1122 -81 723 278 
Q 325 638 269 1209 
z
" id="ArialMT-33" transform="scale(0.015625)"/>
      </defs>
      <use xlink:href="#ArialMT-4d"/>
      <use x="83.300781" xlink:href="#ArialMT-69"/>
      <use x="105.517578" xlink:href="#ArialMT-6e"/>
      <use x="161.132812" xlink:href="#ArialMT-6b"/>
      <use x="211.132812" xlink:href="#ArialMT-4c"/>
      <use x="266.748047" xlink:href="#ArialMT-6f"/>
      <use x="322.363281" xlink:href="#ArialMT-63"/>
      <use x="372.363281" xlink:href="#ArialMT-33"/>
      <use x="427.978516" xlink:href="#ArialMT-44"/>
     </g>
    </g>
    <g id="line2d_31">
     <path d="M 162.88 242.005463 
L 186.88 242.005463 
" style="fill:none;stroke:#fbc15e;stroke-dasharray:3,2.25,0.45,2.25;stroke-dashoffset:0;stroke-width:1.5;"/>
    </g>
    <g id="line2d_32">
     <g>
      <use style="fill:#fbc15e;stroke:#fbc15e;" x="174.88" xlink:href="#m9ff9929c0f" y="242.005463"/>
     </g>
    </g>
    <g id="text_14">
     <!-- M2DP -->
     <g transform="translate(196.48 246.205463)scale(0.12 -0.12)">
      <use xlink:href="#ArialMT-4d"/>
      <use x="83.300781" xlink:href="#ArialMT-32"/>
      <use x="138.916016" xlink:href="#ArialMT-44"/>
      <use x="211.132812" xlink:href="#ArialMT-50"/>
     </g>
    </g>
    <g id="line2d_33">
     <path d="M 162.88 258.979838 
L 186.88 258.979838 
" style="fill:none;stroke:#8eba42;stroke-dasharray:3,2.25,3,2.25,0.45,2.25;stroke-dashoffset:0;stroke-width:1.5;"/>
    </g>
    <g id="line2d_34">
     <g>
      <use style="fill:#8eba42;stroke:#8eba42;stroke-linejoin:miter;" x="174.88" xlink:href="#me6ce0f321e" y="258.979838"/>
     </g>
    </g>
    <g id="text_15">
     <!-- ScanContext -->
     <g transform="translate(196.48 263.179838)scale(0.12 -0.12)">
      <defs>
       <path d="M 3763 1606 
L 4369 1453 
Q 4178 706 3683 314 
Q 3188 -78 2472 -78 
Q 1731 -78 1267 223 
Q 803 525 561 1097 
Q 319 1669 319 2325 
Q 319 3041 592 3573 
Q 866 4106 1370 4382 
Q 1875 4659 2481 4659 
Q 3169 4659 3637 4309 
Q 4106 3959 4291 3325 
L 3694 3184 
Q 3534 3684 3231 3912 
Q 2928 4141 2469 4141 
Q 1941 4141 1586 3887 
Q 1231 3634 1087 3207 
Q 944 2781 944 2328 
Q 944 1744 1114 1308 
Q 1284 872 1643 656 
Q 2003 441 2422 441 
Q 2931 441 3284 734 
Q 3638 1028 3763 1606 
z
" id="ArialMT-43" transform="scale(0.015625)"/>
       <path d="M 47 0 
L 1259 1725 
L 138 3319 
L 841 3319 
L 1350 2541 
Q 1494 2319 1581 2169 
Q 1719 2375 1834 2534 
L 2394 3319 
L 3066 3319 
L 1919 1756 
L 3153 0 
L 2463 0 
L 1781 1031 
L 1600 1309 
L 728 0 
L 47 0 
z
" id="ArialMT-78" transform="scale(0.015625)"/>
      </defs>
      <use xlink:href="#ArialMT-53"/>
      <use x="66.699219" xlink:href="#ArialMT-63"/>
      <use x="116.699219" xlink:href="#ArialMT-61"/>
      <use x="172.314453" xlink:href="#ArialMT-6e"/>
      <use x="227.929688" xlink:href="#ArialMT-43"/>
      <use x="300.146484" xlink:href="#ArialMT-6f"/>
      <use x="355.761719" xlink:href="#ArialMT-6e"/>
      <use x="411.376953" xlink:href="#ArialMT-74"/>
      <use x="439.160156" xlink:href="#ArialMT-65"/>
      <use x="494.775391" xlink:href="#ArialMT-78"/>
      <use x="544.775391" xlink:href="#ArialMT-74"/>
     </g>
    </g>
    <g id="line2d_35">
     <path d="M 289.18375 225.031088 
L 313.18375 225.031088 
" style="fill:none;stroke:#ffb5b8;stroke-dasharray:0.45,2.25,0.45,2.25,3,2.25;stroke-dashoffset:0;stroke-width:1.5;"/>
    </g>
    <g id="line2d_36">
     <g>
      <use style="fill:#ffb5b8;stroke:#ffb5b8;stroke-linejoin:miter;" x="301.18375" xlink:href="#m93a9478416" y="225.031088"/>
     </g>
    </g>
    <g id="text_16">
     <!-- KidnappedRadar -->
     <g transform="translate(322.78375 229.231088)scale(0.12 -0.12)">
      <defs>
       <path d="M 469 0 
L 469 4581 
L 1075 4581 
L 1075 2309 
L 3350 4581 
L 4172 4581 
L 2250 2725 
L 4256 0 
L 3456 0 
L 1825 2319 
L 1075 1588 
L 1075 0 
L 469 0 
z
" id="ArialMT-4b" transform="scale(0.015625)"/>
       <path d="M 2575 0 
L 2575 419 
Q 2259 -75 1647 -75 
Q 1250 -75 917 144 
Q 584 363 401 755 
Q 219 1147 219 1656 
Q 219 2153 384 2558 
Q 550 2963 881 3178 
Q 1213 3394 1622 3394 
Q 1922 3394 2156 3267 
Q 2391 3141 2538 2938 
L 2538 4581 
L 3097 4581 
L 3097 0 
L 2575 0 
z
M 797 1656 
Q 797 1019 1065 703 
Q 1334 388 1700 388 
Q 2069 388 2326 689 
Q 2584 991 2584 1609 
Q 2584 2291 2321 2609 
Q 2059 2928 1675 2928 
Q 1300 2928 1048 2622 
Q 797 2316 797 1656 
z
" id="ArialMT-64" transform="scale(0.015625)"/>
       <path d="M 422 -1272 
L 422 3319 
L 934 3319 
L 934 2888 
Q 1116 3141 1344 3267 
Q 1572 3394 1897 3394 
Q 2322 3394 2647 3175 
Q 2972 2956 3137 2557 
Q 3303 2159 3303 1684 
Q 3303 1175 3120 767 
Q 2938 359 2589 142 
Q 2241 -75 1856 -75 
Q 1575 -75 1351 44 
Q 1128 163 984 344 
L 984 -1272 
L 422 -1272 
z
M 931 1641 
Q 931 1000 1190 694 
Q 1450 388 1819 388 
Q 2194 388 2461 705 
Q 2728 1022 2728 1688 
Q 2728 2322 2467 2637 
Q 2206 2953 1844 2953 
Q 1484 2953 1207 2617 
Q 931 2281 931 1641 
z
" id="ArialMT-70" transform="scale(0.015625)"/>
      </defs>
      <use xlink:href="#ArialMT-4b"/>
      <use x="66.699219" xlink:href="#ArialMT-69"/>
      <use x="88.916016" xlink:href="#ArialMT-64"/>
      <use x="144.53125" xlink:href="#ArialMT-6e"/>
      <use x="200.146484" xlink:href="#ArialMT-61"/>
      <use x="255.761719" xlink:href="#ArialMT-70"/>
      <use x="311.376953" xlink:href="#ArialMT-70"/>
      <use x="366.992188" xlink:href="#ArialMT-65"/>
      <use x="422.607422" xlink:href="#ArialMT-64"/>
      <use x="478.222656" xlink:href="#ArialMT-52"/>
      <use x="550.439453" xlink:href="#ArialMT-61"/>
      <use x="606.054688" xlink:href="#ArialMT-64"/>
      <use x="661.669922" xlink:href="#ArialMT-61"/>
      <use x="717.285156" xlink:href="#ArialMT-72"/>
     </g>
    </g>
    <g id="line2d_37">
     <path d="M 289.18375 242.005463 
L 313.18375 242.005463 
" style="fill:none;stroke:#e24a33;stroke-dasharray:0.45,2.25;stroke-dashoffset:0;stroke-width:1.5;"/>
    </g>
    <g id="line2d_38">
     <g>
      <use style="fill:#e24a33;stroke:#e24a33;stroke-linejoin:miter;" x="301.18375" xlink:href="#ma509efb9fb" y="242.005463"/>
     </g>
    </g>
    <g id="text_17">
     <!-- UnderTheRadar -->
     <g transform="translate(322.78375 246.205463)scale(0.12 -0.12)">
      <defs>
       <path d="M 3500 4581 
L 4106 4581 
L 4106 1934 
Q 4106 1244 3950 837 
Q 3794 431 3386 176 
Q 2978 -78 2316 -78 
Q 1672 -78 1262 144 
Q 853 366 678 786 
Q 503 1206 503 1934 
L 503 4581 
L 1109 4581 
L 1109 1938 
Q 1109 1341 1220 1058 
Q 1331 775 1601 622 
Q 1872 469 2263 469 
Q 2931 469 3215 772 
Q 3500 1075 3500 1938 
L 3500 4581 
z
" id="ArialMT-55" transform="scale(0.015625)"/>
       <path d="M 1659 0 
L 1659 4041 
L 150 4041 
L 150 4581 
L 3781 4581 
L 3781 4041 
L 2266 4041 
L 2266 0 
L 1659 0 
z
" id="ArialMT-54" transform="scale(0.015625)"/>
       <path d="M 422 0 
L 422 4581 
L 984 4581 
L 984 2938 
Q 1378 3394 1978 3394 
Q 2347 3394 2619 3248 
Q 2891 3103 3008 2847 
Q 3125 2591 3125 2103 
L 3125 0 
L 2563 0 
L 2563 2103 
Q 2563 2525 2380 2717 
Q 2197 2909 1863 2909 
Q 1613 2909 1392 2779 
Q 1172 2650 1078 2428 
Q 984 2206 984 1816 
L 984 0 
L 422 0 
z
" id="ArialMT-68" transform="scale(0.015625)"/>
      </defs>
      <use xlink:href="#ArialMT-55"/>
      <use x="72.216797" xlink:href="#ArialMT-6e"/>
      <use x="127.832031" xlink:href="#ArialMT-64"/>
      <use x="183.447266" xlink:href="#ArialMT-65"/>
      <use x="239.0625" xlink:href="#ArialMT-72"/>
      <use x="272.363281" xlink:href="#ArialMT-54"/>
      <use x="333.447266" xlink:href="#ArialMT-68"/>
      <use x="389.0625" xlink:href="#ArialMT-65"/>
      <use x="444.677734" xlink:href="#ArialMT-52"/>
      <use x="516.894531" xlink:href="#ArialMT-61"/>
      <use x="572.509766" xlink:href="#ArialMT-64"/>
      <use x="628.125" xlink:href="#ArialMT-61"/>
      <use x="683.740234" xlink:href="#ArialMT-72"/>
     </g>
    </g>
   </g>
  </g>
 </g>
 <defs>
  <clipPath id="pcd708b3bf8">
   <rect height="173.07975" width="342.25" x="45.92" y="10.8"/>
  </clipPath>
 </defs>
</svg>
